<svg xmlns="http://www.w3.org/2000/svg" viewBox="0 0 391 280">
  <style>
    .st0{display:none}.st1,.st2{display:inline;fill:#6d4277}.st2{fill:#53245e}.st4{fill:#fff}.st5{fill:#77cdea}.st6{fill:#53245e}.st7{fill:#53bce7}.st8{fill:#009bec}.st10{fill:#f4f0ef}.st11{fill:#673b72}.st14{fill:#ef507a}.st15{fill:#ffbea1}.st16{fill:#fba77a}.st18{fill:#cc3262}.st19{fill:#ffcebb}
  </style>
  <g class="st0">
    <path d="M883 471.9c-1.7.9-4.4 1.9-4.5 4.1-.1 2.1.6 4.3 1.9 6 .7.8.9 1.6 2 1.9 1.3.4 3.5 0 4.8-.3 2.7-.5 6.3-.4 8.2-2.6 1.3-1.5 1.8-3.7 1.8-5.7 0-1-.2-1.8-.9-2.5-.4-.4-1.6-1.2-2.2-.9.5-.3.9-.8.9-1.4.1-1.5-1.9-2.1-3.1-2.1-1.7 0-3.2.8-4.5 1.8-1.4.8-3.1.8-4.4 1.7z" class="st1"/>
    <path d="M878 477.5c-1.5-1.1-1.9-3.4-1.3-5.1.6-1.8 1.9-3.3 3.3-4.7.9-.9 1.9-1.8 2.7-2.9.7-.9 2.1-.8 2.7.2 1.1 1.9 1.2 4.6-.2 6.4 2.7 1.4 4.5 4.6 3.9 7.6s-3.7 5.3-6.7 4.8c-2.9-.3-4.9-3.4-4.4-6.3z" class="st2"/>
  </g>
  <g class="st0">
    <path d="M795.3 460.8c1.6 1.2 4 2.7 3.7 4.8-.2 2.1-1.3 4.1-2.9 5.5-.8.7-1.2 1.4-2.3 1.5-1.4.2-3.4-.6-4.7-1.1-2.6-1-6.1-1.5-7.6-4-1-1.8-1.2-3.9-.8-5.9.2-.9.5-1.7 1.3-2.3.5-.3 1.8-.9 2.4-.5-.5-.3-.8-1-.7-1.6.2-1.5 2.2-1.7 3.4-1.6 1.6.2 3 1.3 4.1 2.5 1.1 1.3 2.8 1.7 4.1 2.7z" class="st1"/>
    <path d="M799 467.3c1.6-.8 2.4-3 2.2-4.8-.2-1.9-1.3-3.6-2.4-5.2-.8-1.1-1.5-2.1-2.2-3.3-.5-1-1.9-1.1-2.7-.3a5.83 5.83 0 00-.9 6.3c-2.9.9-5.2 3.7-5.1 6.8.1 3.1 2.7 5.9 5.8 5.9 2.8.1 5.4-2.7 5.3-5.4z" class="st2"/>
  </g>
  <g>
    <path fill="#d0ecf4" d="M282.9 46.9c-72.2-6.5-148.4 15.7-220.2 41.6-8.8 3-17.7 6.5-24.9 12.9-7.2 6.4-12.2 16.7-9.8 24.9 1.2 4.1 4 7.3 6 11.3 4.4 9.2-2 21.9-8 31.4-55.7 87 81.9 110.8 121.8 103.2 48.9-9.5 96.5-26.9 140.4-51.8 17.2-9.9 34.1-21.3 47.4-36.8 13.2-15.6 22.7-36.2 22.7-57.2.3-49-40.6-76.1-75.4-79.5z"/>
    <path d="M225.6 201.3c-3.1.2-5.3 4.2-4.6 8.2.8 3.7 3.7 6.3 6.8 7 3.1.6 6.1-.2 9-1 29.6-7.9 59.4-15.7 89.1-23.6 16.5-4.2 33.1-8.8 49.5-13.1 4-1 8.3-2.1 12.3-3.3 2.6-.8 3.5-3 3.1-6.5-.9-6.3-8.4-6.7-12.3-7-3.9-.2-7.9-.2-12 .6-1.3.2-10.7 3.3-10.7 3.7.5-3.3-2-6.3-5.3-7-3.4-.6-7.5 1.4-9.2 4.5 7.6-12.8 5.9-27.3-2.9-36.9-8.3-8.9-22.5-10.8-36.1-8.2-16 3-26.7 13.1-36.8 25.5-16 1.2-31.5 7.7-40 22.4-3.3 5.5-5.3 12.1-5 18.9.2 3 .8 6.5 2.1 9.1 1.2 2.4 2.5 3.8 3 6.7z" class="st4"/>
    <path d="M56.3 96.6c-8 1.3-15.9 6.1-21.2 13-2 2.6-19.3 3.6-23.1 4.9-3.4 1.1-7.3 2.3-10.7 4.1-2.3 1.2-1.3 5.1 1.2 4.7 17.6-2.8 32.4-5.6 48.2-8 19.3-2.9 38.7-5.6 57.9-8 39.3-4.7 78.8-8.1 118.2-10.2 19.7-1 39.3-1.6 59-1.9.7 0 .9-1.2.1-1.3l-107-21.5c-1.6-.4-3.2-.6-4.8-.8-35.7-4.6-116.5-7.1-99.8 26.9-6.1 1.9-11.7-2.9-18-1.9z" class="st5"/>
    <path d="M86.2 90.3c4.4-.5 6.2-5.8 3.2-8.9-3.7-3.8-9-6.7-12.5-8.4-3.2-1.5-6.9-2.7-10.2-1.3-3.3 1.3-5.2 6.1-2.7 8.6-7.5-7.6-27.8-1.5-36 1.1-1.7.6-2.8 2.4-2.1 4 .7 1.9 2.9 2.1 4.7 2.1l55.6 2.8z" class="st4"/>
    <path d="M305.1 68.7s2.3 3.2 1.7 6c0 0 2.7-.7 3.5 1 0 0-.5-1.5-2.6-1.9.2 0-.6-3.2-2.6-5.1z" class="st5"/>
    <path d="M314.1 64.5s6.3-3 10 .6c0 0 1-6.4 4.3-7.3 0 0-2.6 0-4.8 4.3-.1-.1-5.5-.6-9.5 2.4z" class="st6"/>
    <path d="M354.7 107s-26.1 16.2-20.7 37.9c0 0-26.5-11-37.3-1.5 0 0 5.7-9.2 27.1-7.8-.3.2 10.3-20.7 30.9-28.6z" class="st7"/>
    <path d="M11.3 176s12.8 2.9 17 11.8c0 0 5.4-7.4 11.4-5.2 0 0-4.4-2.8-10.7.5-.1-.2-9.2-6.7-17.7-7.1z" class="st8"/>
    <path d="M19.7 165.9s4-3.4 7.2-1.3c0 0-.5-4.7 1.7-6 0 0-1.8.5-2.6 4-.1-.2-4 .5-6.3 3.3z" class="st6"/>
    <path fill="#ec916f" d="M172.2 213.2c-.2-.4-.7-.6-1-.6-.2 0-.4.1-.6.2-.7.5-1.6.7-2.5.7-1.8 0-3.4-.9-4.3-2.5l-2.5-4.4a5 5 0 011.9-6.9c.6-.4.7-1 .4-1.6-.2-.4-.7-.6-1-.6-.2 0-.4.1-.6.2-.7.5-1.6.7-2.5.7-1.8 0-3.4-.9-4.3-2.5l-2.5-4.4a5 5 0 011.9-6.9c.6-.4.7-1 .4-1.6-.2-.4-.7-.6-1-.6-.2 0-.4.1-.6.2l-2.3 1.4c-.7.5-10.8-1.6-10.8-1.6l-10.1 15.5 21.5 36.8s14.1 1.4 21.9-5.1c7.8-6.5.3-4.9 0-5.4l-6.1-1.3a5 5 0 011.9-6.9l2.3-1.4c.6-.2.9-.9.5-1.4z"/>
    <path d="M238.9 47.9a15.3 15.3 0 00-21-5.6c-1.3.8-1.8 2.5-1 3.9l23.3 40.1c.7 1.3 2.5 1.8 3.8 1 7.4-4.3 9.8-13.8 5.5-21.3l-10.6-18.1z" class="st4"/>
    <path d="M250.9 69.6c-2.5-.7-5.3-1.7-8.1-2.7-10.2-3.8-17.1-16.1-21.3-26-1.2.4-2.4.8-3.5 1.5-1.3.8-1.8 2.5-1 3.9l23.3 40.1c.7 1.3 2.5 1.8 3.8 1 6.2-3.7 8.9-11.1 6.8-17.8z" class="st10"/>
    <path d="M95.6 122.4l-8.1 4.7c-5 2.9-6.8 9.6-3.9 14.7l4.1 7.2c2.9 5.1 9.5 6.9 14.5 4l8.1-4.7-14.7-25.9z" class="st4"/>
    <path d="M107.4 143.2c-7.5 3.4-15.5 2.8-22.9.3l3.2 5.5c2.9 5.1 9.5 6.9 14.5 4l8.1-4.7-2.9-5.1z" class="st10"/>
    <path d="M183.1 16.8l-48.5 75.1 21.4 37.5 88.5-5z" class="st11"/>
    <path fill="#8c619b" d="M143.2 107l7.7 16 85.9-12-37.7-66z"/>
    <path d="M96.1 212.1L10.9 263c10.4 13.1 39.5 15.8 75.4 16.9l36.4-23.7c2.7-1.5 3.9-4.9 2.6-7.7l-19.2-33.7c-2.1-3.5-6.4-4.8-10-2.7z" class="st8"/>
    <path fill="#0979cc" d="M125.3 248.5l-19.2-33.7c-2-3.5-6.4-4.7-10-2.7L66 228.7l5.1 2.3s23.3-12.1 33.5-6.5c0 0 9.5 2.5-18.3 18.4s-11.3 20.3-7.1 16.4c4.2-4 28.6-28.8 29.4-24.1.8 4.6-10.7 10.5-4.5 17.5 4.1 4.6 14.3 2.5 21.1.6.7-1.6.8-3.2.1-4.8z"/>
    <path d="M262.5 65.7c-1.4 0-2.9-.8-3.6-2.1-1.1-2.1-.5-4.6 1.6-5.8 5-2.9 6.7-9.5 3.8-14.5-2.9-5.1-9.4-6.8-14.3-3.9a4.25 4.25 0 11-4.2-7.4c9-5.3 20.7-2.1 25.8 7.1 5.2 9.1 2 20.9-7 26.1-.7.3-1.4.5-2.1.5z" class="st14"/>
    <path d="M270.9 80.4c-1.4 0-2.9-.8-3.6-2.1-1.1-2.1-.5-4.6 1.6-5.8 13-7.6 17.5-24.6 10.1-37.8-3.6-6.4-9.5-11-16.6-12.9-7.1-1.9-14.4-.9-20.8 2.8-2 1.1-4.6.5-5.8-1.6-1.2-2.1-.5-4.6 1.6-5.8 8.3-4.8 17.9-6.1 27.1-3.6 9.2 2.4 17 8.5 21.7 16.9 9.9 17.2 4 39.4-13.1 49.3-.8.4-1.5.6-2.2.6z" class="st14"/>
    <path d="M126.1 251l-21.4-37.5 26.1-17.6 23.6 41.1-28.3 14z" class="st5"/>
    <path d="M130.8 195.9l-3.3 2.2c35.4 45.5 13.7 41.3 10.1 37.9-3.6-3.4-4.2-5.4-11.5 2-5 5.1-14.2-13.8-19.4-25.9l-2 1.4 21.4 37.5 28.2-13.9-23.5-41.2z" class="st7"/>
    <circle cx="132.4" cy="239.3" r="3.3" class="st4"/>
    <path d="M197.2 196.4l-23.9 44.1c-1.7 1-4 .4-4.9-1.3l-50.9-89.1 35.8-20.9 45.3 62.2c.9 1.8.3 4-1.4 5z" class="st11"/>
    <path d="M204.8 210.2l-50.5-78.8-15 5.1c3.4 13.6 6.7 39.4 3.1 57.5l27 47.3c1 1.7 3.3 2.4 4.9 1.3l29.2-27.5c1.8-.9 2.3-3.2 1.3-4.9z" class="st6"/>
    <path d="M126.8 170.3l-4.8 4.3c-8.7 7.5 13.9 26.8 13.9 26.8 2.8 3.1 7.5 3.4 10.6.6l.1-.1c5.7-5.2 6.1-14 1-19.8l-10.2-11.3c-2.8-3-7.5-3.2-10.6-.5z" class="st15"/>
    <path d="M137.4 170.9a7.56 7.56 0 00-10.6-.6l-4.8 4.3c-.7.6-1.1 1.2-1.5 1.9 5.3-5.6 14.4-8.9 21.8 3.6 6.4 10.8 8.7 10.7 5.3 20.7 4.7-5.3 4.7-13.4-.1-18.7l-10.1-11.2z" class="st16"/>
    <path d="M211.9 193.7l-1.3-2.4c-1-1.7-2.5-2.9-4.2-3.7 1.5-2.7 1.5-6.2-.1-9.1l-1.4-2.4a9.56 9.56 0 00-6.4-4.6c2.3-2.9 2.8-7.1.8-10.5l-1.4-2.5c-2.6-4.5-8.3-6-12.7-3.5l-.4.2c.3-2-.1-4.1-1.1-6l-1.4-2.5c-2.6-4.5-8.3-6-12.7-3.5L150 154.4c-4.5 2.6-6 8.4-3.4 12.8 2 3.6 5.7 5.7 9.4 6.1a9.3 9.3 0 00.2 9 12 12 0 0013.4 5.8 9.4 9.4 0 00-2.7 12.3c2.4 4.3 7.1 6.5 11.6 6.1-.7 2.2-.5 4.5.7 6.6 3 5.3 9.7 7.2 15 4l14.7-12.1c3.9-2.1 5.3-7.3 3-11.3z" class="st15"/>
    <path d="M212.3 194.4c-.6 1.7-2.2 2.9-3.7 4-1.4.9-2.7 1.8-4.1 2.7-3.4 2.3-7.2 4.6-11.3 5.1-.4 0-.6.5-.4.8.9 1.1 1.1 2.9.4 4.2-.9 1.7-2.8 2.6-4.7 2.9-1.8.3-3.5.2-5.2-.4-1.6-.6-3.1-1.4-4-2.8-.7-.9-1.1-2.2-1.1-3.3-.3 1.9 0 3.9 1 5.6 3 5.3 9.7 7.2 15 4l14.7-12.1c3.7-2 5.1-6.7 3.4-10.7zM178.3 206.7c0-.2.1-.3.1-.5-.4.2-.7.3-1.2.5h1.1zM145.4 160.8s3.5 8.3 8.9 8.1c6.6-.2 10.1-4.5 10.1-4.5s.6-3.8-2-8c-.7-1.1 1.9.8 4.5 1.7 2.6.8 5.1-1.9 6.5-3.6.7-.8 1.7-.8 2.3 0 1.3 1.5 4.1 3.1 9.2.8 3.6-1.6-18.8 10.5-18.8 10.5l-10.2 7.7c0-.1-11.1 1.2-10.5-12.7zM199.1 170.5c1.2-2 1.7-4.3 1.2-6.7-1.8.9-3.6 1.9-5.4 2.8-1 .6-3.1-3.9-4.1-3.4-.1.1-8.9 9.9-12.5 11.5-.9.4-1.9.8-2.9.9-1 .1-2.1-.3-2.7-1 1.5 1.4 1.9 3.9 1.1 5.8-.7 2-8.7 4.6-10.6 4a13 13 0 01-6.9-5.3c-.6-.8-1-1.8-1.4-2.7-.3 2.1 0 4.1 1.1 6 2.8 4.8 8.3 7.1 13.4 5.8 2.9-1.9 5.7-3.8 8.6-5.5 5.2-3.1 10.4-6.2 15.6-9.4 1.9-1 4-1.2 5.5-2.8z" class="st16"/>
    <path fill="#2b0a33" d="M179.5 22.4l55.3 102.5 9.7-.5-61.4-107.6z" opacity=".45"/>
    <path d="M160.8 132.7L120.9 156a8.2 8.2 0 01-11.2-3l-18.4-32.5c-2.2-4-.9-9 3-11.3l39.9-23.3 26.6 46.8z" class="st14"/>
    <path d="M105 144.6l4.7 8.3c2.2 4 7.3 5.3 11.2 3l39.9-23.3-22.9-40.2c-.5 29.1-16.6 44.3-32.9 52.2zM186.7.9l-5.2 3a6.45 6.45 0 00-2.3 9l66.1 115.8c1.9 3.2 5.8 4.2 8.9 2.4l5.2-3c3.2-1.9 4.2-5.8 2.3-9l-66-115.8a6.57 6.57 0 00-9-2.4z" class="st18"/>
    <path d="M16 243.6c-1.7.2-3.5.3-5-.5-1.3-.7-2.3-2.1-2.6-3.6-.5-2.9 2-6 4.8-6.7 2.2-.7 3.8.1 5.9.8 2.3.8 1-1.7.7-3.1-.7-4 .5-8.4 3-11.6 8.8-10.5 28.9-6.8 30.3 7.9-.3-2.4 1.7-4.9 4.3-5.2 2.4-.3 4.8 1.7 5.2 4.1-.2-1.2 7-1.2 7.8-1.1 3.3-.1 6.5.2 9.7 1 1.2.3 6.6 1.4 9.8 3.2 1.9 1 1.4 4-.7 4.2L16 243.6zM182.9 31.3L142 88.4l2.2 4.5 36.4-39.4c5.8-6.1 6.7-15.2 2.3-22.2z" class="st4"/>
    <path d="M133.8 191l6.3-7a3.1 3.1 0 014.9.4c2 3.2 4 8.6.1 14.8-.3.5-.7.8-1.1 1-1.7.9-6 2.1-10.6-5.4-.7-1.1-.6-2.6.4-3.8z" class="st19"/>
    <ellipse cx="102" cy="113.4" class="st4" rx="7.6" ry="3" transform="rotate(-33.9 102.06 113.37)"/>
    <path d="M297.8 34.8c-.8-6.7-3.8-16.6-13.4-23.7-.8-.7-.2-1.8.7-1.6 6.3 1.7 16.9 7.2 14.4 25.2-.2 1.2-1.7 1.2-1.7.1z" class="st4"/>
    <g>
      <path d="M197.5 192.3c.3-.3.7-.5 1-.8.1-.1-.4.2-1 .8z" class="st16"/>
    </g>
    <path d="M155.2 153.1s-10.4 4-5.7 10.5c4.7 6.6 11.6-.9 11.6-.9s-.3-8.8-5.9-9.6zM163.2 169.3s-12 3.7-2.1 12c0 0 4 3.1 8.9-2.8.3-.4.2-1.6.1-2.1-.5-2.1-2-7-6.9-7.1zM174.3 187.2s-11.3 2.9-4.8 9.5c6.4 6.6 11.5-1.9 11.5-1.9s-.9-5.7-6.7-7.6zM186.2 201.7s-11.6 4.6-1.7 10.8c0 0 4.7 2.4 8.1-3.2 0-.1-.5-3.4-6.4-7.6z" class="st19"/>
    <path d="M181.6 203.3c3.6-3 8-4.9 11.7-7.6a88 88 0 0113.2-7.8c-.1 0-.1-.1-.2-.1.7-1.2 1-2.5 1-4-1.3.8-2.9 1.2-4.4.9-1.4-.2-2.7-.9-3.6-1.9-.6-.6-1.5-.3-1.6.5-.7 3.1-2.4 5.9-5 7.6-3.3 2.2-7.7 2.5-11.4.9 1.3 1.9 1.6 2.7 1.1 4.9-.6 2.1-2.1 3.8-4.1 4.7-3.4 1.6-7.1 1.5-9.5-1.5-2-2.4-3.7-4.8-2.7-7.9-1.2 2.6-1.1 5.8.4 8.5 2.4 4.2 6.8 6.4 11.3 6.1 1.4-1.2 2.5-2.3 3.8-3.3z" class="st16"/>
    <path d="M198.7 19.6L224.8 64 185.1 9.7c5.6 1.2 10.7 4.8 13.6 9.9z" class="st4"/>
    <path d="M87.9 154.5s-6 3-7 7.8c0 0-3.5-3-6.2-1.2 0 0 1.8-1.9 5.3-1 .1 0 3.7-4.4 7.9-5.6z" class="st5"/>
  </g>
</svg>
