<svg xmlns="http://www.w3.org/2000/svg" fill="none" viewBox="0 0 174 174">
  <path fill="#EF507A" d="M110 0a27.5 27.5 0 0127.4 27.4c0 23-34.8 51.2-46.6 60a6.3 6.3 0 01-7.6 0c-11.7-8.9-46.6-37.3-46.6-60A27.4 27.4 0 0184.4 9a3.4 3.4 0 005.2 0C94.7 3.3 102 0 110 0z"/>
  <path fill="#CC3262" d="M90.8 82.3a6.3 6.3 0 01-7.6 0C71.9 73.7 39 47 36.7 24.7v2.7c0 22.7 34.8 51.1 46.5 60a6.3 6.3 0 007.6 0c11.8-8.8 46.6-37 46.6-60l-.1-2.6c-2.4 22.5-35.2 49-46.5 57.5z"/>
  <path fill="#fff" d="M92.9 61.5V48.3c0-.6.5-1.1 1.1-1.1h13.2c.6 0 1.1-.5 1.1-1.2v-9.5c0-.6-.5-1-1.1-1H94c-.6 0-1.1-.6-1.1-1.2V21c0-.6-.5-1.1-1.1-1.1h-9.6c-.6 0-1 .5-1 1.1v13.2c0 .6-.6 1.1-1.2 1.1H66.8c-.6 0-1.1.5-1.1 1.1V46c0 .7.5 1.2 1.1 1.2H80c.6 0 1.1.5 1.1 1v13.3c0 .6.5 1 1.1 1h9.6c.6 0 1-.4 1-1z"/>
  <path fill="#EA9B78" d="M52 101.6L23.1 49.7c-2.3-3.8-7.6-8.4-12-7.7-4.4 1-5 6.7-4 11.1l.1.4 16.5 45c.5 2.1 1.6 4 3.2 5.4l18.4 16.3 6.5-18.6z"/>
  <path fill="#F9B89B" d="M67 99.7l-24.1-14c-3.5-2-12.3-5-11.3 3l-15.2-29c-2.3-3.9-7.7-8.5-12-7.7-4.5 1-5 6.7-4 11v.5l16.5 45c.6 2 1.7 4 3.3 5.3l18.4 16.4c2.3 2 6.4 4.8 6.4 8v12h32.7l-.2-35c0-7.7-4-11.6-10.6-15.5z"/>
  <path fill="#EA9B78" d="M34.6 93.8l19.8 14c1 .8 1.2 2.3.5 3.4-.6 1.2-2 1.6-3 .9L34 99.6c-3-2.4-4-7-2.4-10.9.4 2 1.5 3.9 3 5z"/>
  <path fill="#009BEC" d="M79.2 174H43.8a3.2 3.2 0 01-3.2-3.2v-19c0-1.8 1.5-3.3 3.2-3.3h35.4c1.8 0 3.2 1.5 3.2 3.2v19c0 1.9-1.4 3.3-3.2 3.3z"/>
  <path fill="#53BCE7" d="M79.2 172H43.8a3.2 3.2 0 01-3.2-3.3v-19c0-1.8 1.5-3.2 3.2-3.2h35.4c1.8 0 3.2 1.4 3.2 3.2v19c0 1.8-1.4 3.3-3.2 3.3z"/>
  <path fill="#EDEDF4" d="M75.4 159a4 4 0 100-7.8 4 4 0 000 7.8z"/>
  <path fill="#EA9B78" d="M122 101.6l28.8-51.9c2.3-3.8 7.6-8.4 12-7.7 4.4 1 5 6.7 4 11.1l-.1.4-16.5 45c-.5 2.1-1.6 4-3.2 5.4l-18.4 16.3-6.5-18.6z"/>
  <path fill="#F9B89B" d="M107 99.7l24.1-14c3.5-2 12.3-5 11.3 3l15.2-29c2.3-3.9 7.7-8.5 12-7.7 4.5 1 5 6.7 4 11v.5l-16.5 45c-.6 2-1.7 4-3.3 5.3l-18.4 16.4c-2.3 2-6.4 4.8-6.4 8v12H96.3l.2-35c0-7.7 4-11.6 10.6-15.5z"/>
  <path fill="#EA9B78" d="M139.4 93.8l-19.8 14c-1 .8-1.2 2.3-.5 3.4.6 1.2 2 1.6 3 .9L140 99.6c3-2.4 4-7 2.4-10.9-.4 2-1.5 3.9-3 5z"/>
  <path fill="#009BEC" d="M94.8 174h35.4c1.7 0 3.2-1.4 3.2-3.2v-19c0-1.8-1.5-3.3-3.2-3.3H94.8a3.2 3.2 0 00-3.2 3.2v19c0 1.9 1.4 3.3 3.2 3.3z"/>
  <path fill="#53BCE7" d="M94.8 172h35.4c1.7 0 3.2-1.5 3.2-3.3v-19c0-1.8-1.5-3.2-3.2-3.2H94.8a3.2 3.2 0 00-3.2 3.2v19c0 1.8 1.4 3.3 3.2 3.3z"/>
  <path fill="#EDEDF4" d="M98.6 159a4 4 0 100-7.8 4 4 0 000 7.8z"/>
</svg>
