<svg xmlns="http://www.w3.org/2000/svg" fill="none" viewBox="0 0 192 170">
  <path fill="#53BCE7" d="M6.3 19h24v66.7h-24A6.3 6.3 0 010 79.4V25.2C0 21.7 2.8 19 6.3 19zM185.7 85.7H170V19h15.8c3.5 0 6.3 2.8 6.3 6.3v54.2c0 3.5-2.8 6.3-6.3 6.3z"/>
  <path fill="#F9B89B" d="M68.1 48.3l3.7 21-10.3 2 7.1 9c3.3 4 5.1 9.2 5.1 14.5v69.4a5 5 0 005 5H116c2.5 0 4.6-2 4.6-4.6V96.7c.3-10.2 2.7-9.7 2.7-9.7 6.5-2.8 11.8-17.5 10.5-23.6l-1-15.1H68.2z"/>
  <path fill="#CECEDB" d="M150.2 64.6H41.8V35.7h108.4v28.9z"/>
  <path fill="#FFBD86" d="M85 32.2h19.2l19.3 4.2v14.8H84.9l-3.8-6.7 3.8-12.3z"/>
  <path fill="#009BEC" d="M170.5 104.7h-17.7a6.3 6.3 0 01-6.3-6.3V6.3c0-3.5 2.8-6.3 6.3-6.3h17.7c3.4 0 6.2 2.8 6.2 6.3v92c0 3.5-2.8 6.4-6.2 6.4zM38.4 104.7H21.5a6.3 6.3 0 01-6.2-6.3V6.3C15.3 2.8 18 0 21.5 0h16.9c3.4 0 6.2 2.8 6.2 6.3v92c0 3.5-2.8 6.4-6.2 6.4z"/>
  <path fill="#EA9B78" d="M75.8 58.1a8.3 8.3 0 01-8.2-8.2V32.5c0-4.5 3.7-8.2 8.2-8.2 4.6 0 8.3 3.7 8.3 8.2V50c0 4.5-3.7 8.2-8.3 8.2zM108.3 59a8.3 8.3 0 01-8.2-8.3V33.3c0-4.5 3.7-8.2 8.2-8.2 4.6 0 8.3 3.7 8.3 8.2v17.4c0 4.5-3.7 8.2-8.3 8.2z"/>
  <path fill="#EA9B78" d="M124.6 59a8.3 8.3 0 01-8.3-8.3V36.2c0-4.6 3.7-8.3 8.3-8.3 4.5 0 8.2 3.7 8.2 8.3v14.5c0 4.5-3.7 8.2-8.2 8.2zM92 59a8.3 8.3 0 01-8.2-8.3V29.3a8.3 8.3 0 1116.5 0v21.4c0 4.5-3.7 8.2-8.2 8.2z"/>
  <path fill="#F9B89B" d="M91 74c0-15.8-19.2-20.5-19.2-20.5h8c6.2 0 11.3-5 11.3-11.3V41c0-.9-.7-1.5-1.5-1.5H68.7c-5 0-9.1 4-9.1 9V66c0 2 .6 3.8 1.9 5.3L91 74.1z"/>
</svg>
