<svg xmlns="http://www.w3.org/2000/svg" xmlns:xlink="http://www.w3.org/1999/xlink" viewBox="0 0 54 61"><defs><path id="a" d="M.14.04h34.85V61H.14z"/></defs><g fill="none" fill-rule="evenodd"><g transform="translate(8)"><mask id="b" fill="#fff"><use xlink:href="#a"/></mask><path fill="#33A7D8" d="M31.4.31L.15 16.34V49.7l3.4 1.2v8.81L9.5 53l22.2 7.86c1.62.57 3.3-.65 3.3-2.4V2.58A2.48 2.48 0 0031.4.31" mask="url(#b)"/></g><path fill="#000" d="M32.12 17.8L2.83 14.02c-1.5-.2-2.83 1-2.83 2.54v31.88c0 1.5 1.26 2.68 2.73 2.55l29.3-2.61A2.18 2.18 0 0034 46.19V20c0-1.12-.8-2.05-1.88-2.19"/><path fill="#FFF" d="M22.81 40.22c0 1.8-1.19 2.71-2.49 2.8-1.03.08-1.84-.11-2.4-.57v-2.48c.6.6 1.58.96 2.31.92.45-.03.68-.3.68-.57 0-1.06-3.05-.53-3.05-3.31 0-1.68 1-2.7 2.6-2.7.81-.01 1.5.24 2.06.75v2.32c-.62-.58-1.28-.99-1.98-.97-.42 0-.63.29-.63.56 0 .96 2.9.25 2.9 3.25zM26 34.49l1.28-.01v2.07l-1.28.03v2.83c0 .69.17.94.6.92.23-.01.46-.12.68-.31v2.04c-.3.33-.73.52-1.28.56-1.05.07-1.79-.8-1.8-2.5v-3.5l-.92.02V34.5h.92v-2.16l1.8.03v2.12zM3.7 32.77l7.1.06v2.62l-4.61.05v1.87l3.47-.08v2.54l-3.47.15v3.84L3.7 44V32.77zm9.3 5.29c.09-1 .5-1.63 1.07-1.64.52 0 .95.63.96 1.57l-2.03.07zm1.17-3.74c-2.14 0-3.32 2.15-3.32 4.7 0 2.97 1.54 4.58 3.5 4.44a3.26 3.26 0 002.38-1.07v-2.28c-.62.52-1.27.8-1.92.84-.88.05-1.6-.36-1.8-1.27l4.05-.17v-.74c0-2.44-1-4.45-2.89-4.45zm-3.38-8.09v3.1a4.04 4.04 0 01-2.87 1.05c-2.7-.07-4.92-2.42-4.92-6 0-3.56 2.18-5.64 4.9-5.35 1.04.1 1.94.54 2.74 1.33v2.93a4.1 4.1 0 00-2.7-1.46c-1.4-.12-2.56.95-2.56 2.7 0 1.83 1.2 2.98 2.64 3.05a3 3 0 002.77-1.35zm17-.24c.06-.88.39-1.4.84-1.37.4.03.75.63.76 1.47l-1.6-.1zm3.2.96c0-2.17-.8-4.05-2.29-4.2-1.7-.15-2.62 1.66-2.62 3.92v.25c.01.31.04.61.09.9v.04l.03.15c.34 1.82 1.38 2.85 2.64 2.89.88.02 1.45-.24 1.9-.75v-2.04c-.5.42-1.01.62-1.53.6a1.45 1.45 0 01-1.42-1.28l3.21.17v-.65zm-8.7 1.5c-.67-.02-1.14-.91-1.14-2.08 0-1.16.47-2 1.14-1.94.48.03.82.37 1.07 1v2.15c-.24.6-.59.9-1.06.88zm1.07 2.1l1.82.05-.01-10.3-1.82-.2v3.27c-.37-.78-.91-1.2-1.6-1.27-1.57-.14-2.54 1.88-2.53 4.16 0 2.27.94 4.42 2.53 4.46.7.01 1.24-.34 1.61-1.08v.91zm-8.15-2.42c-.78-.03-1.35-.96-1.35-2.2 0-1.19.57-2.09 1.34-2.03.77.06 1.32 1.02 1.32 2.2 0 1.2-.55 2.06-1.31 2.03zm0-6.64c-2-.2-3.49 1.67-3.49 4.32 0 2.6 1.43 4.69 3.49 4.74 1.99.05 3.3-1.86 3.3-4.34 0-2.5-1.37-4.54-3.3-4.72z"/></g></svg>
