<svg xmlns="http://www.w3.org/2000/svg" fill="none" viewBox="0 0 23 32">
  <path fill="#F78955" fill-rule="evenodd" d="M15.2 1.8c.4 3 2 5.6 3.7 8.2 1.9 3 3.9 6 3.9 10 0 7.1-4.2 11-9.4 11.9h-.2a13.5 13.5 0 01-3.7 0C4.2 31 0 27 0 20c0-3 .7-6.2 2.7-8.5l.8-.8h.6a.7.7 0 01.3.6c0 .2.2 2.4 1.3 3.7.5.6 1 1 1.9 1C7.6 9.4 9 4.5 13.3.8a17 17 0 01.9-.7h.6c.2 0 .4.3.4.6v1z" clip-rule="evenodd"/>
  <path fill="#FFD952" fill-rule="evenodd" d="M12.7 15.8c.1 1.3.9 2.4 1.6 3.6.8 1.3 1.7 2.6 1.7 4.4 0 3-1.8 4.8-4.1 5.1a6 6 0 01-1.7 0C7.8 28.6 6 27 6 23.8c0-1.4.3-2.8 1.2-3.8l.3-.3h.3a.3.3 0 01.1.2c0 .1.1 1.1.6 1.7.2.2.5.4.8.4 0-2.9.6-5 2.5-6.6a8.3 8.3 0 01.4-.3h.3c.1 0 .2 0 .2.2v.4z" clip-rule="evenodd"/>
</svg>
