<svg xmlns="http://www.w3.org/2000/svg" fill="none" viewBox="0 0 124 52"><path fill="#fff" d="M19.66 24.36c0-3.16-.87-5.63-2.66-7.6-1.8-1.99-4.27-2.85-7.42-2.85-.99 0-1.98.12-2.97.18-.98.13-1.97.37-2.84.68v19.17c.87.3 1.8.5 2.66.68a13 13 0 002.66.3c3.27 0 5.75-.86 7.72-2.78 1.86-1.79 2.85-4.32 2.85-7.79zM3.77 51.42H0V12.05a30.87 30.87 0 019.27-1.48c2.17 0 4.27.3 6.06.99 1.8.68 3.34 1.67 4.64 2.84a11.77 11.77 0 012.96 4.33c.68 1.67 1 3.59 1 5.56 0 2.48-.38 4.58-1.3 6.25-.8 1.79-1.86 3.15-3.28 4.26a12.42 12.42 0 01-4.64 2.47c-1.8.5-3.46.8-5.31.8-1 0-1.98-.12-2.85-.18a15.6 15.6 0 01-2.84-.62v14.16h.06zM35.36 0h-3.77v38.02h3.77V0zM63.3 21.64c0-1.12-.19-2.17-.5-3.16a5.9 5.9 0 00-1.48-2.47 6.48 6.48 0 00-2.47-1.67c-1-.37-2.17-.62-3.59-.62-1.36 0-2.6.19-3.58.62-1 .37-1.8.99-2.35 1.6a11.23 11.23 0 00-2.6 5.75H63.3v-.05zm3.09 12.42a16.16 16.16 0 01-4.33 3.15A15.82 15.82 0 0156 38.33c-2.16 0-4.08-.38-5.74-1.12a12.4 12.4 0 01-4.08-2.96 13.6 13.6 0 01-2.48-4.33c-.5-1.6-.8-3.34-.8-5.13 0-2.35.3-4.45.99-6.25.68-1.79 1.6-3.15 2.66-4.32a10.8 10.8 0 013.83-2.6c1.48-.62 3.09-.86 4.76-.86 3.95 0 7.05 1.17 9.02 3.64 1.98 2.48 2.97 6.06 2.97 10.7h-20.4c.13 3.09 1 5.56 2.66 7.3 1.67 1.78 3.96 2.65 6.8 2.65 1.6 0 3.09-.31 4.33-.8a9.32 9.32 0 003.58-2.6l2.29 2.41zM91.98 17.18a10.16 10.16 0 00-3.1-2.65 7.81 7.81 0 00-3.95-.8c-1.97 0-3.27.3-4.08.98-.8.68-1.17 1.6-1.17 2.6 0 .68.18 1.36.5 1.85.36.5.8 1 1.35 1.3.62.37 1.3.68 2.1.99.8.3 1.61.5 2.35.8 1 .31 2.1.68 3.1 1.12.98.37 1.97.86 2.78 1.48.86.62 1.6 1.36 2.1 2.29.5.86.8 1.97.8 3.33 0 1.18-.3 2.35-.8 3.28-.5.99-1.3 1.8-2.17 2.47a8.74 8.74 0 01-3.15 1.49c-1.17.3-2.6.5-3.95.5a13.57 13.57 0 01-10.5-4.57l2.95-2.6a9.18 9.18 0 007.73 3.76c2.1 0 3.59-.37 4.58-1.17.98-.8 1.48-1.67 1.48-2.78 0-.8-.19-1.49-.5-2.1a4.26 4.26 0 00-1.48-1.49c-.62-.37-1.36-.68-2.16-.99-.8-.3-1.67-.5-2.6-.8-.99-.31-2.1-.62-3.09-1-.99-.36-1.85-.8-2.66-1.35a6.64 6.64 0 01-1.98-2.16c-.49-.87-.8-1.98-.8-3.28 0-2.35.87-4.27 2.6-5.56 1.79-1.3 3.95-1.98 6.73-1.98 1.98 0 3.78.3 5.26.99 1.6.68 2.97 1.79 4.45 3.46l-2.72 2.6zM105.83 23.92l13.04-13.04H124l-13.35 13.04 13.23 14.16h-5.2l-12.85-14.16zm-3.71 14.1V.12h3.77v37.9h-3.77zM44.75 47.9H21.88v3.6h22.87v-3.6z"/></svg>
