<svg xmlns="http://www.w3.org/2000/svg" fill="none" viewBox="0 0 126 52">
  <path fill="#000" d="M19.72 24.4c0-3.15-.87-5.62-2.66-7.6-1.8-1.98-4.27-2.85-7.42-2.85-1 0-1.98.13-2.97.19-1 .12-1.98.37-2.85.68V34c.87.3 1.8.5 2.66.68a13 13 0 002.66.3c3.28 0 5.76-.86 7.73-2.78 1.86-1.8 2.85-4.33 2.85-7.8zM3.82 51.5H.05V12.1a30.9 30.9 0 019.28-1.49c2.16 0 4.27.31 6.06 1 1.8.67 3.34 1.66 4.64 2.84A11.78 11.78 0 0123 18.78c.68 1.67.99 3.59.99 5.57 0 2.47-.37 4.57-1.3 6.24-.8 1.8-1.86 3.16-3.28 4.27a12.43 12.43 0 01-4.64 2.48c-1.8.5-3.46.8-5.32.8-.99 0-1.98-.12-2.84-.18-1-.13-1.86-.31-2.85-.62V51.5h.06zM36.43.03h-3.77v38.05h3.77V.03zM64.4 21.69c0-1.12-.19-2.17-.5-3.16a5.9 5.9 0 00-1.48-2.47 6.48 6.48 0 00-2.48-1.67c-.99-.38-2.16-.62-3.59-.62-1.36 0-2.6.18-3.58.62a6.1 6.1 0 00-2.35 1.6 11.24 11.24 0 00-2.6 5.75H64.4v-.05zm3.09 12.43a16.17 16.17 0 01-4.33 3.16 15.83 15.83 0 01-6.06 1.1c-2.17 0-4.09-.36-5.76-1.1-1.6-.69-2.97-1.8-4.08-2.97a13.62 13.62 0 01-2.47-4.33c-.5-1.61-.8-3.35-.8-5.14 0-2.35.3-4.45.98-6.25.68-1.8 1.61-3.15 2.66-4.33a10.82 10.82 0 013.84-2.6 12.3 12.3 0 014.76-.86c3.96 0 7.05 1.17 9.03 3.65 1.98 2.47 2.97 6.06 2.97 10.7H47.82c.12 3.1.99 5.57 2.66 7.3 1.67 1.8 3.96 2.66 6.8 2.66 1.61 0 3.1-.3 4.33-.8a9.32 9.32 0 003.6-2.6l2.28 2.41zM93.1 17.23a10.16 10.16 0 00-3.1-2.66 7.82 7.82 0 00-3.95-.8c-1.98 0-3.28.3-4.08.99-.8.68-1.18 1.6-1.18 2.6 0 .68.19 1.36.5 1.85.37.5.8 1 1.36 1.3.61.37 1.3.68 2.1.99.8.3 1.6.5 2.35.8.99.31 2.1.68 3.1 1.12.98.37 1.97.86 2.78 1.48.86.62 1.6 1.36 2.1 2.3.5.86.8 1.97.8 3.33 0 1.18-.3 2.35-.8 3.28-.5.99-1.3 1.8-2.16 2.48a8.75 8.75 0 01-3.16 1.48c-1.17.3-2.6.5-3.96.5a13.58 13.58 0 01-10.52-4.58l2.97-2.6A9.2 9.2 0 0086 34.86c2.1 0 3.59-.37 4.57-1.17 1-.8 1.49-1.67 1.49-2.79 0-.8-.19-1.48-.5-2.1a4.27 4.27 0 00-1.48-1.48c-.62-.38-1.36-.69-2.17-1-.8-.3-1.67-.49-2.6-.8-.98-.3-2.1-.62-3.09-.99-.99-.37-1.85-.8-2.66-1.36a6.65 6.65 0 01-1.98-2.16c-.5-.87-.8-1.98-.8-3.28 0-2.35.87-4.27 2.6-5.57 1.8-1.3 3.96-1.98 6.74-1.98 1.98 0 3.77.3 5.26.99 1.6.68 2.97 1.8 4.45 3.46l-2.72 2.6zM106.96 23.97L120 10.92h5.14l-13.37 13.05 13.24 14.17h-5.2l-12.86-14.17zm-3.71 14.1V.17h3.77v37.92h-3.77z"/>
  <path fill="#53BCE7" d="M45.84 47.98h-22.9v3.59h22.9v-3.6z"/>
</svg>
