<svg width="128" height="122" viewBox="0 -2 128 128" fill="none" xmlns="http://www.w3.org/2000/svg">
<path fill="#AD6600" d="M43.1 60.2c1.8 0 3.5-1 4.2-3 2.1-7.7 8.4-23.8-2.8-35.6-4.5-4.9-8.3-6.2-12.5-6.2h-1c-4.6 0-8.4 1.7-12.6 6.2-11 11.8-4.8 28.2-2.4 35.5.7 1.7 2 3.1 4.2 3.1h23z"/>
<path fill="#EFB5A0" d="M37.2 53.3c0 1 1 8.3 1 8.3L32 66.2l-6.6-4.6 1-8.3 5.3-3.2 5.5 3.2z"/>
<path fill="#EF507A" d="M37.2 59.9l2.1-.7c.7 0 1 0 1.4.7.4.7 1 1.4 3.1 1.7 6.3 1 18.5 3.9 19.5 10.5v23.5c0 1.3-1 2-2 2H2c-.7 0-2.1-1-2.1-2V72c1-6.6 13.2-9.8 19.5-10.5 1.7-.7 2.8-1.4 3.1-1.7.4-.7 1-.7 1.4-.7l1.7.7c4.2.7 7.7.7 11.5 0z"/>
<path fill="#F4CFBD" d="M31.3 22.7h1.8c7 0 12.1 5.2 12.1 12.1v7.7c0 9-6.2 15-13.9 14.6-7.3.4-13.9-5.6-13.9-14.6v-7.7c0-7 5.2-12.1 12.2-12.1h1.7z"/>
<path fill="#EFB5A0" d="M26.6 22c-.7 0-1.4.4-1.7.7-.3 0-.3.4-.7.4-.3 0-.7.3-1 .6-.4.4-.7.4-.7.7-.4 0-.4.4-.7.4l-1.4 1.4-.4.3c-.3.4-.3.7-.7 1 1.4 2.5 8.4 9.8 17 9.1.4 0 .8-.3.4-.7L32 32.1c.3.3 8 4.9 12.8 4.9v-2.8c0-2.4-.7-4.9-2-7a13.8 13.8 0 00-9.1-5.2h-4.5c-.7 0-1.4 0-2.1.4 0-.4 0-.4-.4-.4z"/>
<path fill="#AD6600" d="M20.9 25.8s5.5 9.7 16 9.4c.3 0 .7-.4.3-.7L33.7 31s9.1 4.9 13.6 3.5c0 0-.3-9.8-9-13.6a14 14 0 00-11.9.4c-2.4.7-4.5 2-5.5 4.5z"/>
<path fill="#000" d="M107.8 47.2c1.8 0 3.5-1 4.2-3.2 2-7.6 5.8-13-2-23.6-4.5-4.9-9.1-5-13.3-5h-1c-4.6 0-8.4 1.7-12.6 6.2C72 33.4 78.2 36.7 80.7 44c.7 1.8 2 3.2 4.2 3.2h23z"/>
<path fill="#CC8E75" d="M102 53.3c0 1 1 8.3 1 8.3l-6.3 4.6-6.6-4.6 1-8.3 5.2-3.2 5.6 3.2z"/>
<path fill="#8C619B" d="M102 59.9l2-.7c.7 0 1 0 1.4.7.3.7 1 1.4 3.1 1.7 6.3 1 18.5 3.9 19.5 10.5v23.5c0 1.3-1 2-2 2H66.7c-.7 0-2.1-1-2.1-2V72c1-6.6 13.2-9.8 19.5-10.5 1.7-.7 2.7-1.4 3-1.7.4-.7 1.1-.7 1.5-.7l1.7.7c4.2.7 7.7.7 11.5 0z"/>
<path fill="#DD9F83" d="M96 22.7h1.7c7 0 12.2 5.2 12.2 12.1v7.7c0 9-6.3 15-14 14.6-7.2.4-13.8-5.6-13.8-14.6v-7.7c0-7 5.2-12.1 12.2-12.1H96z"/>
<path fill="#CC8E75" d="M91.8 19.9c-.7 0-1.4.3-1.7.7-.4 0-.4.3-.7.3-.4 0-.7.4-1 .7-.4.4-.8.4-.8.7-.3 0-.3.4-.7.4L85.6 24l-.4.3c-.3.3-.3.7-.7 1 1.4 2.5 8.4 9.8 17 9 .4 0 .8-.3.4-.6 0 0 3.1 1 8 1v-2.7c0-2.5-.7-5-2-7a13.8 13.8 0 00-9.1-5.2h-4.5c-.7 0-1.4 0-2.1.3 0-.3 0-.3-.4-.3z"/>
<path fill="#000" d="M85.6 23.2s5.5 9.7 16 9.4c.3 0 .7-.4.3-.7 0 0 5.6 1.4 10 0 0 0-.3-9.8-9-13.6a14 14 0 00-11.8.4c-2.4.7-4.5 2-5.5 4.5z"/>
<path fill="#EDAB8E" d="M72.3 61.6c0 1.6 1.6 13.1 1.6 13.1L64 82l-10.4-7.2 1.6-13.1 8.3-5 8.8 5z"/>
<path fill="#199EE0" d="M72.3 72l3.2-1.1c1.1 0 1.7 0 2.2 1 .6 1.2 1.7 2.3 5 2.8 9.9 1.7 29.1 6 30.8 16.5v27c0 2.2-1.7 3.3-3.3 3.3H17.4c-2.3 0-3.4-1.7-3.4-3.3v-27C15.7 80.8 35 75.8 44.8 74.7c2.7-1 4.4-2.2 5-2.7.5-1.1 1.6-1.1 2.1-1.1l3.3 1c5.5 1.2 11 1.2 17 0z"/>
<path fill="#7F422D" d="M42 43.7c-2.2-3.9-2.7-14.3-2.7-14.3 0-2.8-1.1-14.3 7.1-22.5C55.8-2 71.2-1.4 82.1 3.6c.6 0 .6 1 0 1l-4.4.6c-.5 0-.5 1.1 0 1.1h1.7c6.6 1.1 14.3 4.4 18.1 10.4v.6c-2.7 1.6-6 2.7-6.6 8.8 0 0-2.2 17-4.4 18.1-1-.5-44.5-.5-44.5-.5z"/>
<path fill="#E29074" d="M55.2 61.6l-.8 6.2a22 22 0 0018.6.3l-.7-6.5-8.8-5-8.3 5z"/>
<path fill="#F2BFA2" d="M86 45.9c0 4.9-1.7 8.7-5 12.6-14.8 15.4-39 6-39-15.4v-12c0-11 8.3-19.3 19.3-19.3h5C77.1 11.8 86 20 86 31V46z"/>
<path fill="#E29074" d="M86 35.4v-3.8A21 21 0 0083.2 21a21 21 0 00-15.9-9.3h-6C54 11.8 48 15 44.8 20.6c2.2 3.8 8.8 14.3 22.5 13.2.6 0 1.1-.6.6-1.1l-1.7-4.4c0 1 12.6 7.7 19.8 7.1z"/>
<path fill="#7F422D" d="M46.4 16.7s5 14.3 21 13.2c.5 0 1-.5.5-1l-1.7-4.5s14.3 7.7 21.4 5.5c0 0-.5-22.5-24.7-23.6 0 1.1-12.6 2.2-16.5 10.4z"/>
<path fill="#0778DD" d="M38.2 121.5V112c0-4.5-1.8-8.9-5-12.1L17.8 84.6c-2 2-3.5 4.1-3.9 6.6v27c0 1.6 1.1 3.3 3.3 3.3h20.9zM89.3 121.5V112c0-4.5 1.8-8.9 5-12.1l15.3-15.3c2 2 3.5 4.1 3.9 6.6v27c0 1.6-1.1 3.3-3.3 3.3H89.3z"/>
</svg>
