<svg xmlns="http://www.w3.org/2000/svg" fill="none" viewBox="0 0 754 433">
  <path fill="#39ABD8" d="M529.72 393.2H259.8c-67.03-30.93-103.16-86.4-120.19-116.48-82.96-148.83 4.44-302.6 132.7-273.04 115.24 23.38 208.02 171.84 334.68 116.84 40.2-17.63 48.93 8.28 49.43 45.9 1.29 64.08-30.47 135.54-67.84 179.84a185.62 185.62 0 01-58.86 46.93z"/>
  <path fill="#53BCE7" d="M96.13 147.12c27.58-14.62 61.46-16.03 90.76-5.27 13.28 4.74 25.38 13.03 37.96 19.93 11.8 6.45 24.2 11.5 37.68 10.41 33.26-2.96 54.42-37.2 66.44-67.43 19.57-47.45 32.16-78.24 92-91.82 24-4.95 56.1-5.48 80.94.62 47.3 11.26 67.24 61.54 55.76 110.62-3.48 17.51-11.68 33.4-17.73 49.99-5.74 15.6-6.24 36.84 7.77 47.89 21.59 15.69 46.87.3 68.8-7.94 25.96-9.56 55.31-13.1 81.28-1.14 56.33 25.43 50.72 105.23-11.4 144.4-16.6 10.88-35.24 18.72-54.33 25.12-9.1 2.9-18.06 5.87-26.88 9.79-.74.28-1.5.58-2.27.9H188.95a354.25 354.25 0 01-66.89-59.63c-25.22-29.14-45.82-62.82-54.87-100.24-8.37-34.76-6.22-67.25 28.94-86.2z"/>
  <path stroke="#BDE6F2" stroke-miterlimit="10" stroke-width=".5" d="M581.05 208.85l-3.84-2.22a12.02 12.02 0 000-4.35l3.84-2.22a1 1 0 00.37-1.37l-2.94-5.12a1 1 0 00-1.38-.37l-3.84 2.23a11.84 11.84 0 00-3.75-2.17v-4.45a1 1 0 00-1-1h-5.9a1 1 0 00-1 1v4.45c-1.4.49-2.66 1.23-3.75 2.17L554 193.2a1 1 0 00-1.37.37l-2.95 5.12a1 1 0 00.37 1.37l3.84 2.22a11.94 11.94 0 000 4.34l-3.84 2.23a1 1 0 00-.37 1.37l2.95 5.12a1 1 0 001.37.37l3.85-2.23c1.1.94 2.36 1.68 3.75 2.17v4.45a1 1 0 001 1h5.9a1 1 0 001-1v-4.45c1.38-.49 2.65-1.23 3.75-2.17l3.84 2.23a1 1 0 001.38-.37l2.94-5.12a1 1 0 00-.37-1.37zm-15.5 2.75a7.13 7.13 0 11.02-14.27 7.13 7.13 0 01-.01 14.26zM505.41 37.53L502 35.56a10.55 10.55 0 000-3.86l3.41-1.97a.9.9 0 00.33-1.22l-2.62-4.54a.89.89 0 00-1.22-.33l-3.41 1.97c-.97-.83-2.1-1.49-3.33-1.92v-3.95c0-.5-.4-.9-.9-.9h-5.22c-.5 0-.9.4-.9.9v3.95a10.5 10.5 0 00-3.33 1.92l-3.41-1.97a.89.89 0 00-1.22.33l-2.62 4.54a.9.9 0 00.33 1.22l3.41 1.97a10.64 10.64 0 000 3.86l-3.4 1.97a.9.9 0 00-.33 1.22l2.61 4.54c.25.43.8.58 1.22.33l3.41-1.98c.98.84 2.1 1.5 3.33 1.93v3.95c0 .5.4.9.9.9h5.23c.5 0 .89-.4.89-.9v-3.95c1.23-.43 2.36-1.1 3.33-1.93l3.41 1.98c.43.25.98.1 1.22-.33l2.62-4.54a.9.9 0 00-.33-1.22zm-13.76 2.44a6.33 6.33 0 11.01-12.67 6.33 6.33 0 010 12.67zM221.85 54.5l-5.35-3.1a16.66 16.66 0 000-6.03l5.35-3.1c.66-.38.9-1.23.5-1.9l-4.09-7.11a1.4 1.4 0 00-1.9-.51l-5.35 3.1a16.44 16.44 0 00-5.22-3.03v-6.18c0-.77-.62-1.4-1.39-1.4h-8.2c-.76 0-1.39.63-1.39 1.4v6.18c-1.93.68-3.69 1.71-5.21 3.02l-5.35-3.1a1.4 1.4 0 00-1.9.52l-4.1 7.11a1.4 1.4 0 00.5 1.9l5.35 3.1a16.57 16.57 0 000 6.04l-5.34 3.09a1.4 1.4 0 00-.51 1.9l4.1 7.12c.38.66 1.23.9 1.9.5l5.35-3.09a16.45 16.45 0 005.21 3.02v6.19c0 .77.63 1.4 1.4 1.4h8.19c.77 0 1.4-.63 1.4-1.4v-6.19c1.92-.68 3.69-1.71 5.2-3.02l5.35 3.1a1.4 1.4 0 001.91-.51l4.1-7.11a1.4 1.4 0 00-.51-1.91zM200.3 58.3a9.92 9.92 0 11.02-19.83 9.92 9.92 0 01-.02 19.83zM249 24.26l-2.48-1.43a7.63 7.63 0 000-2.79l2.47-1.43c.31-.18.42-.57.24-.88l-1.9-3.29a.64.64 0 00-.88-.23l-2.47 1.43a7.6 7.6 0 00-2.4-1.4v-2.86a.65.65 0 00-.65-.64h-3.8a.65.65 0 00-.64.64v2.86c-.89.32-1.7.8-2.4 1.4l-2.48-1.43a.64.64 0 00-.88.23l-1.9 3.29c-.17.3-.07.7.24.88l2.47 1.43a7.63 7.63 0 000 2.8l-2.47 1.42a.65.65 0 00-.23.88l1.9 3.29c.17.3.56.42.87.24l2.47-1.43a7.6 7.6 0 002.41 1.4v2.85c0 .36.3.65.65.65h3.79c.35 0 .64-.3.64-.65v-2.86c.9-.31 1.7-.79 2.41-1.4l2.47 1.44c.31.18.7.07.89-.24l1.89-3.29c.18-.3.07-.7-.24-.88zm-9.97 1.76a4.58 4.58 0 11.01-9.16 4.58 4.58 0 010 9.16z"/>
  <path fill="#77CDEA" d="M682.63 333.97H236.2a4.86 4.86 0 000 9.7h446.43a4.86 4.86 0 000-9.7z"/>
  <path fill="#D0D0D8" d="M725.14 352.94h-63.4a4.86 4.86 0 000 9.7h63.4a4.86 4.86 0 000-9.7zM204.92 300.16h-63.4a4.86 4.86 0 000 9.7h63.4a4.86 4.86 0 000-9.7z"/>
  <path fill="#6C317A" d="M637.97 387.34H149.72a4.86 4.86 0 000 9.7h488.25a4.86 4.86 0 000-9.7z"/>
  <path fill="#53BCE7" d="M334.19 404.99H204.75a4.86 4.86 0 000 9.7h129.44a4.86 4.86 0 000-9.7z"/>
  <path fill="#D0D0D8" d="M226.32 422.63h-45.79a4.86 4.86 0 000 9.7h45.8a4.86 4.86 0 000-9.7z"/>
  <path fill="#A2D9ED" d="M291.04 206.15H253.4a.66.66 0 010-1.32h37.64a.66.66 0 010 1.32zM291.04 216.98H253.4a.66.66 0 010-1.32h37.64a.66.66 0 010 1.32zM291.04 227.8H253.4a.66.66 0 010-1.31h37.64a.66.66 0 010 1.32zM291.04 238.64H253.4a.66.66 0 010-1.33h37.64a.66.66 0 010 1.33zM291.04 249.46H253.4a.66.66 0 010-1.32h37.64a.66.66 0 010 1.32zM291.04 260.3H253.4a.66.66 0 010-1.33h37.64a.66.66 0 010 1.32zM291.04 271.12H253.4a.66.66 0 010-1.32h37.64a.66.66 0 010 1.32zM291.04 281.95H253.4a.66.66 0 010-1.33h37.64a.66.66 0 010 1.33zM291.04 292.77H253.4a.66.66 0 010-1.32h37.64a.66.66 0 010 1.32zM291.04 303.6H253.4a.66.66 0 010-1.32h37.64a.66.66 0 010 1.32zM291.04 314.43H253.4a.66.66 0 010-1.32h37.64a.66.66 0 010 1.32zM291.04 325.26H253.4a.66.66 0 010-1.33h37.64a.66.66 0 010 1.33z"/>
  <path fill="#A2D9ED" d="M291.7 333.86c-.6 0-1.1-.5-1.1-1.1v-138.3a1.1 1.1 0 112.2 0v138.3c0 .6-.5 1.1-1.1 1.1zM252.08 333.86c-.61 0-1.1-.5-1.1-1.1v-138.3a1.1 1.1 0 112.2 0v138.3c0 .6-.5 1.1-1.1 1.1z"/>
  <path fill="#fff" d="M258.83 200.27l.3 2.35-1.26.08-.44-2.8 1.4.37zM278.27 199.83l-.66 2.06 1.18.07.8-3.3-1.32 1.17z"/>
  <path fill="#8C619B" d="M279.37 200.34c5.5-13.82 6.6-40.5-5.61-64.33l-1.32-5.62h-18.5l-.98 4.3s-3.75 29.12 4.29 66.43c0 0-.44.73 1.98.07 0 0-4.95-47.31 5.28-60.21 0 0 11.03 16.89 13.76 26.13 3.53 11.91-.55 33.42-.55 33.42l1.65-.19z"/>
  <path fill="#000" d="M259.12 202.33s.59 1.4.95 1.47c.37.07.88.88.44.96-.44.07-3.52.07-3.52.07l.81-2.5s1.03.07 1.32 0zM277.61 201.89l-.8 2.94h.88s1.04-.84 1.54-.52c1.1.74 4.99.52 4.99.52s.36-.59.07-.74c-.3-.14-5.5-2.13-5.5-2.13l-1.18-.07zM253.78 130.83l5.84.11-.06 1.05-6.05-.06.27-1.1zM260.33 130.94l-.1 1.1 1.97.06h4.07V131l-5.94-.06zM267.05 131.1l-.06.94 5.89-.05-.33-1-5.5.12z"/>
  <path fill="#C1C1C1" d="M262.58 132.34a.4.4 0 01-.4-.38l-.06-.74a.42.42 0 01.1-.32.4.4 0 01.3-.13H264c.22 0 .4.18.4.41v.7a.4.4 0 01-.39.42l-1.41.04h-.02zm-.06-1.35c-.05 0-.1.02-.13.06a.2.2 0 00-.05.15l.06.74c0 .1.1.18.19.18l1.41-.04c.1 0 .18-.09.18-.2v-.7c0-.1-.08-.2-.18-.2h-1.48z"/>
  <path fill="#fff" d="M264.68 131.34h-.66c-.1 0-.19.08-.19.19v.01c0 .1.09.19.19.19h.66c.1 0 .18-.09.18-.19v-.01c0-.1-.08-.19-.19-.19z"/>
  <path fill="#EDBBAE" d="M259.62 81.64c-.98.26-.5 2.76.33 3.81.82 1.05.93-4.14-.33-3.8zM266.4 81.64c.99.26.5 2.76-.32 3.81-.83 1.05-.94-4.14.33-3.8zM261 93.78l.32-6.51 3.63-.11 1 6.95-4.96-.33z"/>
  <path fill="#F4DBD7" d="M276.22 130.65s-2.8 2.6-2.83 3.49c-.03 1.21 3.12 7.72 4.66 6.62 0 0-1.17-2.1-1.83-5.7 0 0 .25-3.13 1.32-3.57 1.06-.44-1.32-.84-1.32-.84z"/>
  <path fill="#EDBBAE" d="M227.42 97.97s-1.87-8.75-1.54-11.73c0 0-.84-1.47-1.17 3.93 0 0-9.08 7.72.14 7.32.5-.02.7.78 1.14 1.14 0 0 .55 1.1 1.43-.66z"/>
  <path fill="#F4DBD7" d="M219.39 91.8s1.98-1.44 5.28-1.11c0 0 .66 1.65-.66 1.65 0 0 2.64 1.33.99 3.86 0 0-4.84 2.1-5.28 1.1-.44-.99-.22-4.52-.22-4.52s-1.1-.44-.11-.99z"/>
  <path fill="#fff" d="M253.78 130.83l18.77.17.44-18.14 3.3-9.27 8.59 12.24-9.25 14.89 1.65 2.32s13.21-15.88 13.21-18.53c0-2.65-14.86-20.51-14.86-20.51l-9.25-1.22-5.96-.07-12.2 1.62-10.9 19.85-9.24-16.21h-2.97s7.92 25.14 11.23 25.14c3.3 0 14.53-19.52 14.53-19.52s2.3 7.61 2.64 9.6c.33 1.98.27 17.64.27 17.64z"/>
  <path fill="#D3D8E5" d="M277.36 127.93s2.49 1.98 2.34 2.24l.44-.55-2.5-2.25-.28.56z"/>
  <path fill="#000" d="M278.38 131.13c.29 0 .52-.24.52-.54 0-.3-.23-.53-.52-.53a.52.52 0 00-.51.53c0 .3.23.53.51.53z"/>
  <path fill="#D3D8E5" d="M226.16 101.11s2.66-.68 3.17-1.05l.44.81-3.4.96-.21-.72z"/>
  <path fill="#000" d="M226.54 100.23c.28 0 .5-.21.5-.47a.48.48 0 00-.5-.47c-.27 0-.5.21-.5.47s.23.47.5.47z"/>
  <path fill="#076AAE" d="M263.34 93.37l.65 1.33-.03 1.47-1.02-.08c-.2 0-.35-1.17-.35-1.17l.62-1.5.13-.05z"/>
  <path fill="#D3D8E5" d="M260.42 92.7l.57 5.93 2.15-5.8 3.58 5.8-.12-5.85.28.11.39 7-.28.03-3.74-5.98-2.31 6.18-.39-.11-.51-7.25"/>
  <path fill="#BECD27" d="M262.94 96.1l-1.29 17.2 2.86 4.19-.99-22.06-.58.66z"/>
  <path fill="#F4DBD7" d="M260.3 78.12s-1.16 10.54 0 11.12c1.15.58 5.4 1.06 5.88.1.48-.97.1-11.22-.97-11.7-1.06-.49-3.76-.68-4.91.48z"/>
  <path fill="#fff" d="M261.05 85.37s2.94.69 4.18.3c0 0-.06 1.43-.63 1.96l-2.4-.03s-1.45-.88-1.15-2.23z"/>
  <path fill="#B2722D" d="M263.58 77.73s2.53 1.24 2.42 3.89l.11 1.95.14.03-.06-2.07s.25-2.53-.6-4.3c0 0-.88-.96-2.01.5z"/>
  <path fill="#D18A34" d="M259.62 81.64s.33 1 .22 2.21l.22.11s.16-5.07 2.14-5.57c1.98-.5 3.75-.16 4.24-2.2.2-.83.2-1 .13-.9-.4.56-.95.97-1.63 1.1-.82.15-1.87.32-2.57.35-1.32.05-2.04.16-2.53 1.05 0 0-1.6 1.6-.22 3.85z"/>
  <path fill="#292C36" d="M520.25 387.24H320.26a13.28 13.28 0 01-13.26-13.3V99.42c0-7.34 5.94-13.3 13.26-13.3h200c7.32 0 13.26 5.96 13.26 13.3v274.54c0 7.34-5.94 13.29-13.27 13.29z"/>
  <path fill="#fff" d="M518.88 375.44H321.42a3.53 3.53 0 01-3.52-3.53V101.7a3.53 3.53 0 013.52-3.52h197.46a3.53 3.53 0 013.52 3.53V371.9a3.53 3.53 0 01-3.52 3.53z"/>
  <path fill="#A3AA11" d="M336.03 150.56v4.46a32.48 32.48 0 0032.45 32.12 32.48 32.48 0 0032.44-32.12v-4.46"/>
  <path fill="#BECD27" d="M368.48 183.38a32.48 32.48 0 0032.44-32.5 32.48 32.48 0 00-32.44-32.51 32.48 32.48 0 00-32.45 32.5 32.48 32.48 0 0032.45 32.51z"/>
  <path fill="#fff" d="M367.45 167.39c-.75 0-1.47-.3-2-.83l-13.4-13.42a2.84 2.84 0 014.01-4.01l10.87 10.9 13.56-21.75a2.83 2.83 0 114.8 3l-15.44 24.78a2.83 2.83 0 01-2.4 1.33z"/>
  <path fill="#A3AA11" d="M419.68 140.87v1.87a5.8 5.8 0 005.78 5.8h67a5.8 5.8 0 005.78-5.8v-1.87h-78.56z"/>
  <path fill="#BECD27" d="M492.46 135.08h-67a5.8 5.8 0 000 11.57h67a5.8 5.8 0 000-11.57z"/>
  <path fill="#A3AA11" d="M419.68 162.76v1.88a5.8 5.8 0 005.78 5.79h52.07a5.8 5.8 0 005.78-5.79v-1.88h-63.63z"/>
  <path fill="#BECD27" d="M477.53 156.98h-52.07a5.8 5.8 0 000 11.57h52.07a5.8 5.8 0 000-11.57z"/>
  <path fill="#AAACC1" d="M368.48 269.38a32.48 32.48 0 0032.44-32.51 32.48 32.48 0 00-32.44-32.51 32.48 32.48 0 00-32.45 32.5 32.48 32.48 0 0032.45 32.52z"/>
  <path fill="#D0D0D8" d="M400.92 239.58c0-16.46-14.53-30.58-32.44-30.58-17.92 0-32.45 14.12-32.45 30.58 0 16.45 14.53 29.8 32.45 29.8 17.91 0 32.44-13.35 32.44-29.8z"/>
  <path fill="#AAACC1" d="M367.45 256.58c-.75 0-1.47-.3-2-.83l-13.4-13.41c-1.1-1.11-1.36-4.71-.25-5.82 1.1-1.11 3.15.7 4.26 1.8l10.87 10.9 13.56-21.75c.83-1.32 3.35-3.02 4.68-2.19 1.33.83.96 3.87.13 5.2l-15.45 24.77a2.83 2.83 0 01-2.4 1.33z"/>
  <path fill="#E8E9EF" d="M367.45 253.38c-.75 0-1.47-.3-2-.83l-13.4-13.42a2.83 2.83 0 114-4.01l10.88 10.9 13.56-21.75a2.83 2.83 0 114.8 3l-15.44 24.78a2.83 2.83 0 01-2.4 1.33z"/>
  <path fill="#D0D0D8" d="M479.05 220.13h-53.6a5.8 5.8 0 000 11.57h53.6a5.8 5.8 0 000-11.57zM493.14 242.03h-67.68a5.8 5.8 0 000 11.57h67.68a5.8 5.8 0 000-11.57z"/>
  <path fill="#AAACC1" d="M368.48 353.49a32.48 32.48 0 0032.44-32.5 32.48 32.48 0 00-32.44-32.51 32.48 32.48 0 00-32.45 32.5 32.48 32.48 0 0032.45 32.51z"/>
  <path fill="#D0D0D8" d="M400.92 323.7c0-16.47-14.53-30.58-32.44-30.58-17.92 0-32.45 14.11-32.45 30.57s14.53 29.8 32.45 29.8c17.91 0 32.44-13.34 32.44-29.8z"/>
  <path fill="#AAACC1" d="M367.45 340.7c-.75 0-1.47-.3-2-.83l-13.4-13.42c-1.1-1.1-1.36-4.71-.25-5.82 1.1-1.1 3.15.7 4.26 1.8l10.87 10.9 13.56-21.74c.83-1.33 3.35-3.02 4.68-2.2 1.33.84.96 3.88.13 5.2l-15.45 24.78a2.83 2.83 0 01-2.4 1.33z"/>
  <path fill="#E8E9EF" d="M367.45 337.5c-.75 0-1.47-.3-2-.84l-13.4-13.41a2.84 2.84 0 014.01-4.02l10.87 10.9 13.56-21.75a2.83 2.83 0 114.8 3.01l-15.44 24.77a2.83 2.83 0 01-2.4 1.33z"/>
  <path fill="#D0D0D8" d="M498.7 304.25h-73.24a5.8 5.8 0 000 11.57h73.25a5.8 5.8 0 000-11.57zM461.92 326.14h-36.46a5.8 5.8 0 000 11.58h36.46a5.8 5.8 0 000-11.58z"/>
  <path stroke="#8E91AD" stroke-linecap="round" stroke-miterlimit="10" d="M378.21 271.66c.09 1.48.35 2.9.75 4.27"/>
  <path stroke="#8E91AD" stroke-dasharray="2.87 2.87" stroke-linecap="round" stroke-miterlimit="10" d="M382.84 283.2a27.16 27.16 0 0015.91 9.47c11.6 2 23.3-1.88 34.95-3.56 11.66-1.68 25.3-.3 32.37 9.13 5.4 7.22 5.49 17.3 10.43 24.85 8.18 12.5 27.25 13.38 40.16 5.89 5.14-2.98 9.04-7.36 12.19-11.92"/>
  <path stroke="#8E91AD" stroke-linecap="round" stroke-miterlimit="10" d="M531.1 313.59c.77-1.27 1.49-2.53 2.17-3.75"/>
  <path stroke="#8E91AD" stroke-linecap="round" stroke-miterlimit="10" stroke-width="2" d="M385.37 278.17l-7.82-7.83-2.86 10.92"/>
  <path fill="#8C619B" d="M543.7 315.25a32.48 32.48 0 0032.44-32.5 32.48 32.48 0 00-32.44-32.51 32.48 32.48 0 00-32.45 32.5 32.48 32.48 0 0032.45 32.51z"/>
  <path fill="#fff" d="M550.48 297.83c-.66.35-1.43.42-2.15.2l-18.1-5.6a2.84 2.84 0 011.67-5.42l14.7 4.54 1.85-25.57a2.83 2.83 0 115.65.41l-2.12 29.13a2.84 2.84 0 01-1.5 2.3z"/>
  <path fill="#BC8879" d="M559.09 311.8s-5.03-.33-7.07-.69c0 0-.27.64 2.52 1.56.25.09 0 0 0 0s-1.86 1.22-3.79 1.68c-2.42.58-4.95.47-3.95 1.02.8.44 5.92 2.12 12.88-3.16l-.4-.59-.2.18z"/>
  <path fill="#BECD27" d="M582.68 384.15l1.25 3.13s-7.91.42-10.4.21c-2.5-.2 1.24-1.46 1.24-1.46l6.25-1.46 1.66-.42z"/>
  <path fill="#AF7B6E" d="M583.38 279.6l-.66-7.72 3.08-2.2 2.42 8.82-4.84 1.1z"/>
  <path fill="#6C317A" d="M590.47 312.87s8.63 30 26.44 35.4c17.8 5.41 22.17 7.49 25.13 9.65 0 0 .54-.32.5-1.26 0 0-16.96-11.59-22.4-13.52-8.36-2.97-12.4-20-20.23-32.44-7.82-12.43-9.44 2.17-9.44 2.17z"/>
  <path fill="#6C317A" d="M591 309.9s-12.4 20.8-16.45 35.94c-4.05 15.14 7.23 38.87 7.23 38.87l.9-.18s-8.94-29.7-1.38-39.77c7.93-10.57 20.47-28.42 17.8-37.03-2.04-6.58-8.1 2.16-8.1 2.16z"/>
  <path fill="#D0D0D8" d="M587.47 276.22s-1.8 1.08-4.8 2.16c0 0-2.62 2.36-1.9 9.32.64 6.07 4.19 22.35 6.35 28.96 0 0 8.58 4.4 16.5-1.99 0 0-11.83-41.21-16.15-38.45z"/>
  <path fill="#D0D0D8" d="M558.5 311.82l.37.94c.07.18.27.28.45.22 3.2-1 22.46-7.84 28.75-28.89v-.02c1.08-3.65-4.12-5.64-5.75-2.2-3.24 6.85-5.45 19.28-23.65 29.5a.37.37 0 00-.16.45z"/>
  <path fill="#BECD27" d="M642.53 356.93l3.32-.55s-1.3 7.84-2.05 10.24c-.74 2.4-1.15-1.54-1.15-1.54l-.07-6.43-.05-1.72z"/>
  <path fill="#BC8879" d="M580.73 274.2c.17.6.81.97 1.48.86a4.73 4.73 0 004.14-3.65c.61-2 1.76-6.64 1.76-6.64s-6.76-5.25-7.89-3.98c-1.02 1.15-.53 9.6.51 13.41z"/>
  <path fill="#632F25" d="M579.66 263.32s-3.1-5.19.91-5c1.65.08 2.57.24 3.07.4.55.2 1.35.22 1.93.17.66-.05 1.26.12 1.83.95 1.13 1.64 4.68 2.87 2.96 6.26-2.53 5-3.73 7.08-3.73 7.08l-.77-3.16-.5-1.26-.7-.13s-.28-2.09-.35-3.1l-1.34-1.33s-.85-1.58-3.31-.88z"/>
  <path fill="#AF7B6E" d="M585.23 267.77s.98-2.04 1.4-.22c.32 1.4-.49 3.7-1.4 3.14-.38-.23-.1-2.47-.1-2.47"/>
  <path fill="#8C619B" d="M737.86 191.47a36.68 36.68 0 00-36.14-42.77c-12.77 0-24 6.53-30.56 16.45a12.34 12.34 0 00-22.72 9.17 21.84 21.84 0 00-19.76 16.46 26.5 26.5 0 00-17.95 25.01 26.45 26.45 0 0026.35 26.4h90.57A26.45 26.45 0 00754 215.8a26.5 26.5 0 00-16.14-24.32z"/>
  <path fill="#fff" d="M726.02 408.63h-8.92a9.54 9.54 0 00-8.94-12.73h-.11a8.71 8.71 0 00-13.98-8.77 15.8 15.8 0 00-30.2 8.88 9.55 9.55 0 00-8.07 9.42 9.54 9.54 0 009.5 9.51h5.94a5.53 5.53 0 005.47 4.94h49.31c3.03 0 5.5-2.48 5.5-5.51v-.23a5.52 5.52 0 00-5.5-5.5z"/>
  <path fill="#8C619B" d="M129.12 276.5h-.26a21.48 21.48 0 00-34.48-21.63 38.98 38.98 0 00-36.27-24.72 39 39 0 00-38.22 46.61A23.55 23.55 0 000 299.96a23.52 23.52 0 0023.43 23.49h105.7a23.52 23.52 0 0023.42-23.48 23.52 23.52 0 00-23.43-23.48z"/>
  <path fill="#E8E9EF" d="M174.68 78.36h-21.92a10.19 10.19 0 00-9.2-14.46h-.1a9.3 9.3 0 00-14.94-9.37A16.89 16.89 0 0096.25 64a10.2 10.2 0 00-8.61 10.05c0 5.6 4.57 10.17 10.15 10.17h8.02a5.57 5.57 0 005.54 5.24h63.33c3.05 0 5.55-2.5 5.55-5.55 0-3.06-2.5-5.56-5.55-5.56zM165.76 332.51a24.79 24.79 0 00-23.71-31.98 24.77 24.77 0 00-22.69 14.85 10.24 10.24 0 00-19.86 4.3 17.22 17.22 0 00-12.05 12.24 15.49 15.49 0 00-12.43 15.15v.22c0 3.67 1.3 7.05 3.45 9.7H62.69a6.85 6.85 0 00-6.83 6.84v.22a6.85 6.85 0 006.83 6.84h84.09a6.85 6.85 0 006.82-6.84v-.22c0-.37-.03-.74-.09-1.1h7.14c8.47 0 15.4-6.95 15.4-15.44v-.22a15.5 15.5 0 00-10.29-14.56z"/>
  <path fill="#041A4C" d="M730.53 349.39l-1.53.09-.55-3.45 1.72.46M693.34 344.95l-.1 4.36-1.52-.05.31-4.31h1.3z"/>
  <path fill="#292C36" d="M690.66 346.2c-4.3-39.88 11.6-85.83 11.6-85.83h22.8l.7 2.26c1.82 10.32-1.86 20.9-.56 42.22.75 12.31 3.87 25.28 5.56 42.68l-3.11-.85s-14.43-42.18-14.47-74.75c0 0-11.04 23.1-13.4 34.75-3.12 15.48-6.18 39.7-6.18 39.7l-2.94-.19z"/>
  <path fill="#fff" d="M693.35 348.8l1 3.63H681.3s-.45-.72-.09-.9c.37-.19 10.7-2.63 10.7-2.63l1.44-.1zM730.43 348.74l1 3.63h-13.04s-.46-.73-.1-.91c.37-.18 10.7-2.63 10.7-2.63l1.44-.09z"/>
  <path fill="#041A4C" d="M725.25 260.9l-7.18.15.06 1.29 7.46-.07-.34-1.36zM717.18 261.05l.14 1.35-2.44.07h-5.02v-1.36l7.32-.06zM708.91 261.25l.07 1.15-6.96-.04.1-1.25 6.79.14z"/>
  <path fill="#C1C1C1" d="M714.4 262.77a.5.5 0 00.5-.47l.08-.92a.52.52 0 00-.13-.39.5.5 0 00-.37-.16h-1.81a.5.5 0 00-.5.51v.87c0 .28.2.5.48.5l1.74.06h.02zm.08-1.67c.06 0 .12.03.17.08.04.05.07.12.06.18l-.07.92a.23.23 0 01-.24.22l-1.74-.05a.23.23 0 01-.22-.24v-.87c0-.13.1-.24.23-.24h1.81z"/>
  <path fill="#fff" d="M711.83 261.54h.81c.13 0 .23.1.23.22v.03c0 .12-.1.22-.23.22h-.8a.23.23 0 01-.23-.22v-.03c0-.12.1-.22.22-.22z"/>
  <path fill="#CC8C7F" d="M720.73 199.56c1.2.32.6 3.4-.4 4.7-1.03 1.28-1.16-5.1.4-4.7z"/>
  <path fill="#BA7E74" d="M719.03 214.51l-.4-8.01-4.48-.14-1.22 8.56 6.1-.4z"/>
  <path fill="#fff" d="M709.47 214.9l2.78-.74h10.04l-7.62 7.52-5.2-6.79z"/>
  <path fill="#BECD27" d="M701.07 215.27l11.43-1.5 1.93 4.1 5.35-4.18 9.64 1.19-.96 13.13s-1.18 8.87-1.82 11.34c-.64 2.47-1.1 21.78-1.1 21.78l-27.7.15 1.28-22.5.73-7.4 1.22-16.11z"/>
  <path fill="#CC8C7F" d="M719.9 195.22s.95 12.94-.48 13.65c-1.42.72-5.6 2.74-6.78.17-.55-1.21-.12-13.82 1.19-14.41 1.3-.6 4.63-.84 6.06.6z"/>
  <path fill="#000" d="M721.04 195.67a5 5 0 00-2.6-2.85 6.5 6.5 0 00-4.36-.73 4.39 4.39 0 00-3.26 2.8c.33-.18.7-.31 1.07-.38.15-.02.3-.04.42.05.11.1.1.32-.05.34.35.29.69.62 1.68.41h.08c.25.05.52.06.8.07l2.81.2c2.34.75 2.09 6.92 2.09 6.92l.27-.14c-.14-1.5.74-2.8.74-2.8a3.9 3.9 0 00.3-3.89z"/>
  <path fill="#000" d="M719.91 202.14s.4 2.62.43 3.23a42 42 0 01-.1 3.82c-.15 1.25-.3 3.85-6.2 3.4-.52-.04-1.99-.4-2.27-1.12-.25-.6-.15-3-.16-3.22 0-1.1.37-4.34.84-5.72 0 0 .03.92.23 1.01.28.14.62-.97 1.14-.88.52.1 1.2.07 2.31.95 1.11.88 3.62-1.5 3.62-1.5l.16.03z"/>
  <path fill="#E8E9EF" d="M701.11 209.25l-32.72 6.71a4.86 4.86 0 00-3.77 5.73l6.7 32.78a4.86 4.86 0 005.72 3.78l32.72-6.72a4.86 4.86 0 003.77-5.72l-6.7-32.79a4.85 4.85 0 00-5.72-3.78z"/>
  <path fill="#8C619B" d="M679.71 224.44a13.14 13.14 0 012.93-2.74 11.06 11.06 0 014.36-1.71c1.17-.2 2.27-.23 3.31-.07s1.97.48 2.78.97c.82.48 1.5 1.13 2.05 1.92.55.8.92 1.74 1.1 2.8a7.7 7.7 0 01.03 2.87 7.62 7.62 0 01-.82 2.25c-.38.67-.81 1.26-1.3 1.8l-1.38 1.48c-.43.46-.8.91-1.1 1.35-.28.43-.43.88-.42 1.35l.12 3.25-3.08.54-.93-3.43a2.77 2.77 0 01.01-1.77c.2-.53.5-1.05.9-1.55.39-.5.84-1 1.34-1.5.5-.48.96-1.01 1.36-1.58.41-.56.73-1.17.97-1.82a4.32 4.32 0 00-.45-3.67 3.3 3.3 0 00-1.09-.97c-.43-.25-.92-.4-1.45-.49a6.68 6.68 0 00-5.12 1.61c-.37.31-.67.58-.9.82-.23.24-.44.37-.63.4-.43.08-.79-.05-1.07-.4l-1.52-1.71zM688.05 246.85a3.04 3.04 0 01.47-2.24 2.95 2.95 0 013.12-1.2 3.04 3.04 0 012.28 2.4 2.93 2.93 0 01-1.33 3.04 3.03 3.03 0 01-2.3.4 2.78 2.78 0 01-1.04-.45 3.02 3.02 0 01-1.2-1.95z"/>
  <path fill="#CC8C7F" d="M690.14 248.16s-3 .03-4.4-.1c-1.39-.15-.17 1.29.85 1.34 1.03.06-5.38-.06-5.38-.06s-.35 1.7 2.9 2.02c3.7.37 6.9-2.98 6.9-2.98l-.87-.22z"/>
  <path fill="#A3AA11" d="M729.38 214.81s-16.3 19.85-19.56 22.5c-4.83 3.92-19.82 10.38-19.82 10.38l.26 1.96s19.13-3.81 23.56-5.9c2.61-1.23 11.94-9.46 14.28-12.85 2.34-3.4 1.28-16.09 1.28-16.09z"/>
  <path fill="#EDBBAE" d="M309.05 278.9c2-.6 3.35-1.05 4.54.66 1.14 1.63 1.6 5.3 1.52 7.24-.08 1.99-3.85 2.74-5.75 2.18-3.55-1.04-4.58-8.83-.31-10.09z"/>
  <path fill="#DDA89E" d="M313.66 287.45l1.59 4.78s-1.99 2.58-4.96.8l.2-6.17 3.17.6z"/>
  <path fill="#D18A34" d="M310.94 282.22a.96.96 0 00-.07.03c-.92.48-.51 1.6.14 2.09.56.42 1.25.65 1.78 1.11 1.4 1.24.07 3.1-1.25 3.62-1.35.54-2.94 0-4.03-.97-1.31-1.17-2.82-3.14-3.9-4.51-.52-.67-.79-1.62-.43-2.4.28-.6.87-1 1.43-1.36l3.05-1.96c1.66-1.06 3.38-2.7 5-1.1 1.2 1.19 1.09 3.19.66 4.7l-.37 1.34c-.03.12-.07.24-.18.3-.12.05-.26-.02-.34-.12-.08-.1-.13-.22-.19-.33a1.07 1.07 0 00-1.3-.44z"/>
  <path fill="#EDE2D1" d="M305.75 280.3c.84.45 1.94.46 2.73-.08a2.2 2.2 0 00.84-2.53c-.36-.9-1.5-1.42-2.37-1.03-1.32.6-3.01 2.63-1.2 3.63z"/>
  <path fill="#B2722D" d="M303.16 271.75c-2.44-.96-5.16-.87-7.7-1.47-2.56-.6-5.21-2.32-5.48-4.93-.18-1.75.77-3.4 1.05-5.15.44-2.78-.93-5.64-3.07-7.48-2.13-1.83-4.92-2.75-7.71-3.11-7.5-1-15.58 2.05-19.99 8.2-4.4 6.17-4.49 15.31.36 21.13 2.89 3.47 7.11 5.54 11.37 7.05 4.15 1.47 8.87 2.48 12.86.6 3.1-1.45 5.18-4.38 7.76-6.64 2.57-2.25 6.41-3.85 9.34-2.08 1.65 1 5.09 3.48 5.6-.16.33-2.41-2.41-5.17-4.4-5.96z"/>
  <path fill="#FBB507" d="M278.84 312.29l2.39-1.9-31.68-39.94-2.4 1.9 31.69 39.94z"/>
  <path fill="#C91A0D" d="M278.18 310.2l1.17-.93a.78.78 0 011.1.13l1.67 2.1c.26.34.2.83-.13 1.1l-1.17.93a.78.78 0 01-1.1-.13l-1.67-2.1a.78.78 0 01.13-1.1z"/>
  <path fill="#098EB2" d="M278.84 312.29l2.39-1.9-1.27-1.6-2.4 1.9 1.28 1.6z"/>
  <path fill="#DBD0C6" d="M249.55 270.45l-6.93-6.22 4.54 8.12 2.39-1.9z"/>
  <path fill="#C91A0D" d="M242.62 264.23l4.72 4.24-1.63 1.3-3.09-5.54z"/>
  <path fill="#EDBBAE" d="M304.24 358.44l-2.33 7.78s-4.73 1.3-14.9 30.03l1.13.32s15.06-23.97 16.76-28.44l4.4-5.75-5.06-3.94zM281.1 304.23l-6.15-.8-3.3.8 1.45.79 9.13.27-1.12-1.06zM326.3 262.94l-.62-4.06.53-2.12 1.37-4.2.53.53-1.02 3.76s1.06.17 1.33.53c.26.35-1.24 6-1.24 6l-.88-.44zM325.05 348.24l.19 14.59-.97 37.92-1.17-.53s-4.08-27.85-1.55-35.27l-2.53-14.32 6.03-2.39z"/>
  <path fill="#BECD27" d="M321.53 316.38s5.43.77 6.36 13.24c.63 8.46 0 33.34 0 33.34s-2.65-3.71-9.27 0c-6.61 3.71-23.02.66-23.02.66s9.41-36.97 19.27-46.05c4.77-4.39 6.66-1.2 6.66-1.2z"/>
  <path fill="#19040E" d="M322.1 314.39s-5.46.66-7.45 1.33v2.12s5.87.13 7.72-1.2l-.26-2.25z"/>
  <path fill="#8C619B" d="M306.51 294.21s4.55-3.31 8.25-5.1a9.98 9.98 0 003.74-3.16l6.08-8.44 1.32-14.92h1.66s2.38 14.12.99 17.5c-.87 2.1-3.23 6.04-4.9 8.7a7.04 7.04 0 00-.76 5.78c.48 1.55.94 3.37.94 4.53 0 2.38-1.87 10.23-1.5 13.88.35 3.53-8.47 2.65-8.47 2.65s-2.98-13.66-5.56-14.45c-2.58-.8-6.55 3.18-8.73 3.97-2.19.8-9.73.6-18.46.6v-1.52l16.07-2.86 9.33-7.16z"/>
  <path fill="#19040E" d="M322.99 399.25l1.54.7s.25.47 3.22 2.46l2.98 1.98s.6.75-.86.74c-4.37-.05-4.8-2.21-6.35-1.86l.13 1.72-.8.09s-.54-5.02.14-5.83zM288.23 396.65c.34 1-2.28 4.23-3.64 5.75l-.97-.41s2.18-5.27 3.24-5.86c.07-.02 1.05-.43 1.37.52z"/>
  <path fill="#8C619B" d="M191.45 253.51c-.39-2.62-6.28-31.3-6.84-31.1l-2.04.7-.2-9.02-.7-.17a97.7 97.7 0 00-40.39-43.29l11.61 39.92c1.83-1.1 4.56-.04 5.18 2l-5.98.16 12.36 19.6-1.4-.22 14 28.31c2.43 4.92 5.16 9.67 7.65 14.55a157.1 157.1 0 013.5 7.44c.86 1.92 1.08 4.47 2.32 6.13.88 1.18 2.66 1.84 3.88 1 1.21-.83 1.27-2.6.95-4.03-2.37-10.5-2.3-21.34-3.9-31.98z"/>
  <path fill="#53BCE7" d="M182.61 249.36a135.56 135.56 0 00-25.26-56.33c8 16.58 15.33 31.28 24.51 53.73l.75 2.6z"/>
  <path fill="#fff" d="M166.93 264.9c.64-.22 8.54 10.02 9.5 11.07 3.33 3.67 6.69 7.72 10.49 10.9 4.7 3.94 3.64-3.27 2.99-6.31-.87-4.04-2.52-7.84-3.97-11.68a86.38 86.38 0 00-9.83-18.69c-12.4-17.88-34-33.78-56.18-35.47.15.01 5.75 11.33 6.66 12.49 3.37 4.33 7.43 7.48 11.96 10.47 9.36 6.2 18.58 11.16 25.91 20.02l-2.23 1.4a28.2 28.2 0 019.27 4.28l-4.57 1.51z"/>
  <path fill="#D0D0D8" d="M144.27 229.63c7.23 3.89 13.95 11.55 19.42 17.55a136.55 136.55 0 0115.84 21.15c2.44 4.02 4.4 8.33 6.72 12.38-1.2-7.87-6.42-16.22-10.8-22.7a89.59 89.59 0 00-18.36-19.9 85.87 85.87 0 00-12.82-8.48z"/>
  <path fill="#BECD27" d="M176.5 279.62a12.94 12.94 0 00-2.17 7.18c0 7.35 6.16 13.3 13.76 13.3s13.76-5.95 13.76-13.3c0-2.65-.8-5.11-2.17-7.19h-23.17z"/>
</svg>
