<svg viewBox="0 0 128 128" fill="none" xmlns="http://www.w3.org/2000/svg">
<path fill="#8C619B" d="M76.3 105.7a2.2 2.2 0 001.5-2.4v-.6-.5c0-1.2-.9-2.1-2-2.3-1.3-.2-2.3-1.5-2-2.6v-.7c.1-1.2 1-2 2.2-2h.7c1.1.1 2.2-.5 2.4-1.6l.6-1.1c.4-1.1.2-2.2-.8-2.8a2.2 2.2 0 01-.3-3.3l.3-.6a2.2 2.2 0 013.4-.4c1 .8 2.2.8 2.8 0l1.1-.7c1-.8 1.3-1.9.8-2.8-.6-1.3 0-2.4 1.3-3l.7-.4c1.3-.5 2.4 0 3 1.3a2.2 2.2 0 002.4 1.5h1.1c1.1 0 2-1 2.3-2 .2-1.3 1.5-2.3 2.6-2h.7c1.3.1 2.3 1.4 2 2.5-.1 1.2.4 2.3 1.6 2.5l1 .5c1.2.4 2.3.2 2.9-.7a2.2 2.2 0 013.3-.4l.6.4c1.1.7 1.3 2.4.4 3.3-.8 1-.8 2.3 0 2.8l.7 1.1a3 3 0 002.2 1.2c.2 0 .4 0 .6-.2 1.3-.6 2.4 0 3 1.3l.4.9c.5 1.3 0 2.4-1.4 3a2.2 2.2 0 00-1.4 2.4V98.6c0 1.1.9 2 2.2 2.2 1.3.2 2.2 1.5 2 2.7v.7c-.1 1.1-1 2-2.2 2.2h-.7c-1.2-.1-2.3.4-2.5 1.5l-.5 1.1c-.4 1.2-.2 2.3.7 2.8 1.1.8 1.3 2.5.4 3.4l-.4.6c-.3.5-1 .7-1.7.9-.5 0-1.3 0-1.8-.6-1-.7-2.3-.7-2.8 0l-1.1.8c-1 .7-1.3 1.8-.8 2.8.6 1.3 0 2.4-1.3 3l-.7.3c-1.3.6-2.4 0-3-1.3a2.2 2.2 0 00-2.4-1.5h-1.1c-1.2 0-2 1-2.3 2.3-.2 1.3-1.5 2.2-2.6 2h-.7c-1.3-.2-2.3-1.5-2-2.6.1-1.1-.5-2.2-1.6-2.4l-1-.6c-1.2-.4-2.3-.2-2.9.8a2.2 2.2 0 01-3.3.3l-.6-.3a2.2 2.2 0 01-.4-3.4c.8-1 .8-2.2 0-2.8l-.7-1.1a3 3 0 00-2.3-1.1c-.1 0-.3 0-.5.2-1.3.5-2.4 0-3-1.3l-.4-.8c-.5-1.8 0-3.1 1.3-3.7zm22.3 4.4a10 10 0 008.8-11.2A10 10 0 0096 90a10 10 0 00-8.7 11.2c.7 5.4 5.8 9.3 11.2 8.8z"/>
<path fill="#009BEC" d="M8.6 39.8c2 0 3.8-1.4 4.2-3.4l.6-2.2c.5-1.5 0-3.3-1.1-4.3l-1-.7a4.4 4.4 0 01-1.7-6l.6-1c1.1-2.2 3.8-3 6-1.8 1.7 1 4 .6 5.3-.8l.8-.9.8-.8a4.4 4.4 0 00.8-5.4 4.4 4.4 0 011.5-6l1-.6c1.7-1.1 3.8-.7 5.2.5l.7 1c1 1.7 3.1 2.6 5 2 .7-.3 1.4-.5 2.2-.6 2-.5 3.3-2.4 3.3-4.4C42.8 2 44.7 0 47.2 0h1.2C51 0 53 1.9 53 4.3c0 2 1.4 3.8 3.4 4.2l2.2.6c2 .6 4-.3 5-2 1.2-2.2 4-3 6-1.8l1 .6c2.2 1.1 3 3.8 1.8 6-1 1.7-.6 4 .8 5.3l.9.8c.2.3.6.5.8.9a4.4 4.4 0 005.4.7 4.4 4.4 0 016 1.5l.8 1c1.3 2.1.6 4.8-1.6 6.1a4.4 4.4 0 00-2 5c.3.8.5 1.5.6 2.3.5 2 2.4 3.3 4.4 3.3 2.4 0 4.4 1.8 4.4 4.3v1.3c0 2.4-1.9 4.4-4.3 4.4-2 0-3.8 1.4-4.2 3.4l-.6 2.2c-.5 1.6 0 3.2 1.2 4.4l.9.7c2.1 1.2 3 3.8 1.8 6l-.6 1a4.4 4.4 0 01-6 1.8c-1.8-1-4-.6-5.4.8l-.8.8-.8.8a4.4 4.4 0 00-.7 5.4c1.3 2.1.6 4.8-1.6 6.1l-1 .7c-1.8 1-4 .7-5.4-.6l-.7-1a4.4 4.4 0 00-5-2c-.7.3-1.4.6-2.3.7-2 .4-3.2 2.3-3.2 4.3 0 2.5-2 4.5-4.4 4.5h-1.3c-1.1 0-2.3-.5-3.1-1.3a4.3 4.3 0 01-1.3-3.2c0-2-1.4-3.7-3.4-4.2l-2.2-.6c-2-.6-4 .4-5 2.1a4.4 4.4 0 01-6 1.8l-1-.6a4.4 4.4 0 01-1.8-6c.9-1.7.5-4-.9-5.4-.2-.2-.6-.4-.8-.8l-.8-.8a4.4 4.4 0 00-5.4-.7 4.4 4.4 0 01-6-1.5l-.8-1a4.4 4.4 0 011.5-6.2c1.8-1 2.6-3.1 2-5l-.6-2.2c-.4-2-2.3-3.3-4.3-3.3a4.3 4.3 0 01-4.4-4.4v-1.2a4.8 4.8 0 014.5-4.5zm39.8 25a20.2 20.2 0 100-40.3 20.2 20.2 0 000 40.4z"/>
<path fill="#A2D9ED" d="M72.6 32.2c.4 0 .7-.1 1-.4.8-.6 1-1.6.4-2.3a38.6 38.6 0 00-13-11.6c-.8-.5-1.8-.1-2.3.7-.5.8-.1 1.9.7 2.3 4.7 2.6 8.8 6.2 11.8 10.7.3.3.9.6 1.4.6z"/>
<path fill="#0778DD" d="M69 45.8a21.3 21.3 0 11-21.8-21.3 20.2 20.2 0 1019 10.8C68 38.3 69 42 69 45.8z"/>
<path fill="#A2D9ED" d="M121.2 68.6a41.2 41.2 0 00-10.5-53.2A41.2 41.2 0 0081 6.7c-.4 0-.7.4-.7.8l.4 3.5c0 .3.4.6.8.6a36.4 36.4 0 0140.1 32c1 8-.6 15.7-4.5 22.4l-1.1-5.5c-.1-.4-.5-.7-.8-.6l-3.5.7c-.3.1-.6.5-.5.9l2.7 12.9c.1.4.5.6.8.5l13-2.7c.3 0 .6-.4.5-.8l-.7-3.4c0-.4-.5-.6-.8-.6l-5.4 1.2zM7.6 84.5A41.2 41.2 0 0041 127.2c10.6 2.1 21.5 0 30.6-5.8.3-.3.4-.7.2-1l-2-3a.7.7 0 00-1-.1 36.4 36.4 0 01-50.2-10.4 36.4 36.4 0 01-6.2-22l3.6 4.5c.3.3.7.3 1 0l2.7-2.1c.3-.3.3-.7.1-1L11.5 76a.7.7 0 00-1-.1L.4 84.2c-.3.2-.4.7-.1 1l2.1 2.7c.3.3.7.3 1 0l4.3-3.4z"/>
</svg>
