<svg width="128" height="128" viewBox="0 0 128 128" fill="none" xmlns="http://www.w3.org/2000/svg">
<path fill="#53BCE7" d="M50.6 108.7L48 119.3a8.5 8.5 0 01-8.2 6.4h48.4a8.5 8.5 0 01-8.2-6.4l-2.6-10.6H50.6z"/>
<path fill="#D6F5FC" d="M0 98.7v5.8c0 4.2 3.5 7.7 7.7 7.7h112.6c4.2 0 7.7-3.5 7.7-7.7v-5.8H0z"/>
<path fill="#199EE0" d="M120.3 22.9H7.7A7.8 7.8 0 000 30.6v69h128v-69c0-4.2-3.5-7.7-7.7-7.7z"/>
<path fill="#BDF0FF" d="M7.7 90.6h112.6V31.9H7.8v58.7z"/>
<path fill="#0778DD" d="M102 128H26c-1 0-2-.8-2-1.9 0-1 .8-2 2-2h75.8c1 0 2 .9 2 2 0 1-.8 1.9-2 1.9z"/>
<path fill="#FFAE6B" d="M64 16.7z"/>
<path fill="#FF9457" d="M29 20.3a2 2 0 00-.4 1v38.5a2 2 0 001 1.7L63 80.8a2 2 0 001 .2l25.8-60.9-60.9.2z"/>
<path fill="#ED7829" d="M99 20.3L64 20v61c.3 0 .7-.1 1-.3l26.6-15.4 6.8-4c.6-.3 1-.9 1-1.6V21.2a2 2 0 00-.3-1z"/>
<path fill="#fff" d="M71.7 49.6v6c0 1 1 1.6 1.9 1.2L91 46.7c.4-.2.6-.6.6-1v-6.1c0-1-1-1.6-1.8-1l-17.5 10c-.3.2-.6.6-.6 1z"/>
<path fill="#FFA766" d="M98.4 19.6L65 .3a2 2 0 00-2 0L29.6 19.6a2 2 0 00-.7.7L64 40.5l35-20.2a2 2 0 00-.6-.7z"/>
</svg>
