<svg xmlns="http://www.w3.org/2000/svg" fill="none" viewBox="0 0 656 411">
  <style>
    <!-- @keyframes floating{0%{transform:translateY(0)}50%{transform:translateY(-10px)}} -->
    @keyframes rotate{to{transform:rotate(360deg);}}
  </style>
  <path fill="#E9FAFF" d="M6.67 231.86c-16.31-45.3-1.71-98.97 32.85-135.46 30.7-32.42 76.64-49.8 122.58-60.75 86.3-20.4 178.17-21.69 265.12-3.22 19.32 4.07 39.92 10.09 51.09 24.9 14.17 18.89 7.08 44.65 13.74 66.55 6.65 21.9 26.4 38.64 47.65 50.87 21.26 12.24 44.87 21.47 65.05 35 22.97 15.45 41.64 37.13 48.51 62.25 6.87 25.12.86 53.45-18.67 72.34-14.6 13.96-34.78 21.9-54.96 28.34-87.15 27.7-180.97 34.35-272.63 26.62-45.94-3.87-244.51-13.1-300.33-167.44z"/>
  <path fill="#77CDEA" d="M490.33 288.1a54.31 54.31 0 100-108.63 54.31 54.31 0 000 108.63z"/>
  <path fill="#AEE2F4" d="M157.59 229.92c61.3 0 110.98-49.69 110.98-110.98 0-61.3-49.69-110.99-110.98-110.99-61.3 0-110.99 49.7-110.99 110.99 0 61.3 49.7 110.98 110.99 110.98z"/>
  <path fill="#AEE2F4" fill-rule="evenodd" d="M615.27 327.38h-2.8v-8.15c0-6.01-4.93-10.74-10.73-10.74a10.9 10.9 0 00-10.73 10.74v8.15h-2.8c-1.5 0-2.78 1.3-2.78 2.8v19.1c0 1.5 1.29 2.8 2.79 2.8h27.05c1.5 0 2.79-1.3 2.79-2.8v-19.1c-.22-1.72-1.29-2.8-2.8-2.8zm-21.9-8.15a8.3 8.3 0 018.16-8.16 8.3 8.3 0 018.16 8.16v8.15h-16.32v-8.15zm21.9 29.62h-27.05v-19.1h27.05v19.1z" clip-rule="evenodd"/>
  <path fill="#AEE2F4" fill-rule="evenodd" d="M599.81 345.42c.22.21.65.43 1.08.43.2 0 .64-.22 1.07-.43l9.23-10.52c.43-.43.43-1.5 0-1.93-.43-.43-1.5-.43-1.93 0l-8.38 9.23-4.07-5.15c-.43-.44-1.3-.65-1.94-.22-.43.43-.64 1.29-.21 1.93l5.15 6.66z" clip-rule="evenodd"/>
  <path stroke="#fff" stroke-linecap="round" stroke-miterlimit="10" d="M50.68 266.63a83.27 83.27 0 0042.94 12.02M10.97 196c0 23.19 9.44 44.01 24.9 59.04M17.2 164.23a86.06 86.06 0 00-5.37 19.33M51.76 124.73a84.7 84.7 0 00-22.12 18.9 70.2 70.2 0 00-8.37 12.45c-.86 1.5-1.5 2.79-2.14 4.29M85.46 113.79a85.42 85.42 0 00-30.27 9.01M93.62 113.36c-1.72 0-3.22 0-4.94.21M113.37 115.72a76.28 76.28 0 00-10.1-1.93"/>
  <path fill="#AEE2F4" d="M452.33 120.87h-.86l-.86-.21a3.65 3.65 0 01-2.79-4.3v-.21c.22-.65-.21-1.5-.86-1.72l-1.28-.64c-.65-.43-1.5-.22-1.94.21a4.9 4.9 0 01-2.57 1.29c-.86 0-1.93-.22-2.8-1.07l-.64-.43a4.9 4.9 0 01-1.28-2.58c0-1.07.21-1.93 1.07-2.79.43-.64.64-1.29.21-1.93a4.47 4.47 0 00-.85-1.29c-.43-.64-1.08-.86-1.94-.64-.43 0-.64.21-.86.21a3.74 3.74 0 01-3.64-2.58l-.22-.64a3.77 3.77 0 012.36-4.72 1.61 1.61 0 001.08-1.5v-1.5c0-.65-.43-1.3-1.3-1.51-1.07-.22-1.71-.86-2.35-1.72-.43-.86-.65-1.93-.43-2.79l.21-.64a3.87 3.87 0 014.51-2.8h.43c.64 0 1.07-.42 1.29-.85l.64-1.29c.43-.64.22-1.29-.21-1.93-1.5-1.5-1.72-3.87-.22-5.37l.43-.64c1.5-1.5 3.86-1.72 5.37-.22h.21c.65.43 1.3.43 1.94 0 .42-.21.85-.43 1.28-.86.65-.43.86-1.07.65-1.93v-.21a3.84 3.84 0 012.57-4.51l.65-.22a4.18 4.18 0 012.79.22 4.7 4.7 0 011.93 2.15c.21.64.86 1.07 1.72 1.07h1.28c.65 0 1.3-.43 1.5-1.29.22-1.07.87-1.72 1.72-2.36a4.3 4.3 0 012.8-.43l.64.21c1.07.22 1.72.86 2.36 1.72.43.86.64 1.72.43 2.8v.2c-.21.65.21 1.51.86 1.73l1.29.64c.64.43 1.5.21 1.93-.22a5.85 5.85 0 012.57-1.28c1.08 0 1.94.21 2.8 1.07l.64.43a4.9 4.9 0 011.29 2.58c0 .85-.22 1.71-.65 2.36l-.21.21c-.43.65-.64 1.29-.21 1.93.2.43.42.86.85 1.3.43.64 1.08.85 1.94.64.21 0 .64-.22 1.07-.22a3.74 3.74 0 013.65 2.58l.21.64a3.77 3.77 0 01-2.36 4.72c-.64.22-1.07.86-1.07 1.72v1.5c0 .65.43 1.3 1.29 1.5 1.07.22 1.71.86 2.36 1.72.43.86.64 1.94.43 2.8l-.22.64a3.87 3.87 0 01-4.5 2.79h-.44c-.64 0-1.07.43-1.28.86l-.65 1.29c-.43.64-.21 1.5.22 1.93l.21.21c.65.65.86 1.5 1.08 2.36 0 1.08-.22 1.94-1.08 2.8l-.43.64a3.76 3.76 0 01-5.36.21 1.61 1.61 0 00-1.94 0c-.43.22-.86.43-1.28.86-.65.43-.86 1.08-.65 1.93v.22a3.85 3.85 0 01-2.57 4.5l-.65.22a3.77 3.77 0 01-4.72-2.36c-.22-.64-.86-1.07-1.72-1.07h-1.29c-.64 0-1.29.43-1.5 1.28a4.55 4.55 0 01-4.08 2.58zm-2.14-4.3a1.79 1.79 0 001.28 2.15l.65.22c.86.21 1.71-.43 1.93-1.08.43-1.71 1.93-3 3.65-3h1.29a3.53 3.53 0 013.86 2.58c.22.86 1.07 1.28 1.93 1.07l.65-.22c.86-.21 1.28-1.07 1.07-1.93v-.21a3.49 3.49 0 011.72-4.08c.43-.22.64-.43 1.07-.64a3.6 3.6 0 014.72.42c.65.43 1.5.43 2.15-.21l.43-.64c.21-.22.43-.65.43-1.08 0-.43-.22-.86-.43-1.07l-.21-.22c-1.08-1.28-1.3-3-.43-4.29.21-.43.43-.86.64-1.07.64-1.29 1.72-1.93 3.22-2.15h1.07c.86.22 1.72-.43 1.94-1.29l.21-.64c0-.43 0-.86-.21-1.29-.22-.43-.65-.64-.86-.64a3.88 3.88 0 01-3-3.65v-1.29c-.22-1.72.85-3.22 2.57-3.86.86-.22 1.29-1.08 1.07-1.94l-.21-.64a1.62 1.62 0 00-1.5-1.07h-.44a3.77 3.77 0 01-4.29-1.72c-.21-.43-.43-.65-.64-1.07a3.9 3.9 0 010-4.3l.21-.21c.22-.22.43-.65.43-1.08 0-.43-.21-.85-.43-1.07l-.64-.43a1.64 1.64 0 00-1.08-.43c-.43 0-.86.22-1.07.43a3.61 3.61 0 01-4.5.65 4.7 4.7 0 01-1.08-.65 3.5 3.5 0 01-1.93-4.08v-.21c0-.43 0-.86-.22-1.29a1.18 1.18 0 00-1.07-.64l-.64-.22c-.43 0-.86 0-1.3.22-.42.21-.64.64-.64.85a3.88 3.88 0 01-3.65 3.01h-1.29c-1.71.21-3.22-.86-3.86-2.58-.21-.43-.43-.85-.86-.85-.43-.22-.86-.22-1.28-.22l-.65.22c-.86.21-1.29 1.07-1.07 1.93v.21a3.48 3.48 0 01-1.72 4.08c-.43.22-.64.43-1.07.64a3.6 3.6 0 01-4.73-.42 1.65 1.65 0 00-2.14.21l-.43.64c-.65.65-.65 1.5 0 2.15 1.29 1.29 1.5 3 .64 4.5-.21.44-.43.87-.64 1.08-.65 1.29-1.72 1.93-3.22 2.15h-1.08c-.85-.22-1.71.43-1.93 1.29l-.21.64c0 .43 0 .86.21 1.29.22.43.65.64.86.64 1.72.43 3 1.93 3 3.65v1.29a3.75 3.75 0 01-2.57 3.86c-.86.22-1.29 1.08-1.07 1.94l.21.64c.22.64.86 1.07 1.5 1.07h.43a3.77 3.77 0 014.3 1.72c.21.43.43.64.64 1.07a3.6 3.6 0 01-.43 4.73c-.21.43-.43.64-.43 1.07 0 .43.22.86.43 1.07l.65.43c.21.22.64.43 1.07.43.43 0 .86-.21 1.07-.43 1.29-1.28 3-1.5 4.51-.64.43.21.86.43 1.07.64 1.72.43 2.58 2.15 2.37 3.87zm7.08-6.86c-4.08 0-7.94-1.5-10.95-4.3-3.22-3-4.94-6.87-5.15-11.16a15.96 15.96 0 0115.45-16.74c8.8-.43 16.53 6.65 16.75 15.45.21 8.8-6.66 16.53-15.46 16.75h-.64zm0-30.27h-.64c-7.73.21-13.74 6.87-13.53 14.6.22 3.65 1.72 7.3 4.5 9.66 2.8 2.36 6.23 3.86 10.1 3.65 7.73-.22 13.74-6.87 13.52-14.6a13.8 13.8 0 00-13.95-13.31z"/>
  <path fill="#009BEC" d="M441.38 56.9c-.64-.22-1.07-.65-1.07-1.29v-.43-.43c0-.64.43-1.29 1.07-1.5.86-.22 1.3-1.07.86-1.72l-.21-.43a1.62 1.62 0 00-1.5-1.07h-.43c-.65.21-1.3 0-1.72-.64-.22-.22-.22-.43-.43-.65-.43-.64-.22-1.29.21-1.72.65-.64.43-1.5 0-2.14l-.21-.22c-.64-.64-1.5-.43-2.15 0-.43.43-1.07.65-1.72.22-.21-.22-.43-.22-.64-.43-.64-.22-.86-.86-.86-1.72.22-.86-.21-1.5-1.07-1.72h-.43c-.86-.21-1.5.22-1.72 1.08-.21.64-.64 1.07-1.29 1.07h-.86c-.64 0-1.28-.43-1.5-1.07-.21-.86-1.07-1.3-1.71-.86l-.43.21c-.86.22-1.3 1.08-.86 1.72.21.64 0 1.29-.65 1.72-.21.21-.43.21-.64.43-.65.43-1.29.21-1.72-.22-.64-.64-1.5-.43-2.14 0l-.22.22c-.64.64-.43 1.5 0 2.14.43.43.64 1.3.22 1.72-.22.22-.22.43-.43.64-.22.43-.65.86-1.3.86h-.42c-.86-.21-1.5.22-1.72 1.08v.43c-.21.85.22 1.5 1.07 1.71.65.22 1.08.65 1.08 1.3v.85c0 .64-.43 1.29-1.08 1.5-.85.22-1.28 1.08-.85 1.72l.21.43c.21.64.86 1.07 1.5 1.07h.43c.65-.21 1.29 0 1.72.65.22.21.22.43.43.64.43.64.21 1.29-.22 1.72-.64.64-.43 1.5 0 2.14l.22.22c.21.21.64.43 1.07.43.43 0 .65-.22 1.08-.43.42-.43 1.28-.64 1.71-.22.22.22.43.22.65.43.64.22.86.86.86 1.5-.22.87.21 1.51 1.07 1.72h.43c.86.22 1.5-.21 1.72-1.07.21-.64.64-1.07 1.28-1.07h.86c.65 0 1.3.43 1.5 1.07.22.86 1.08 1.29 1.72.86l.43-.21c.86-.22 1.29-1.08.86-1.72-.21-.65 0-1.29.64-1.72.22-.21.43-.21.65-.43.64-.43 1.29-.21 1.72.22.64.64 1.5.42 2.14 0l.65-.22c.64-.64.43-1.5 0-2.15-.43-.43-.65-1.07-.22-1.71.22-.22.22-.43.43-.65.22-.43.65-.86 1.29-.86h.43c.86.22 1.5-.21 1.72-1.07v-.43c-.22-.64-.65-1.5-1.5-1.5zm-12.66 6.87a8.17 8.17 0 11-.86-16.31 8.17 8.17 0 01.86 16.3z"/>
  <g transform="translate(-235 -10)"><g style="transform-origin:50%50%;animation:10s infinite linear rotate;"><path transform="translate(235 10)" fill="#53BCE7" d="M156.3 212.97c-3-1.3-4.94-4.51-4.3-7.73.22-.65.22-1.3.22-1.72 0-.65.22-1.29.22-1.72.21-3.22 2.79-5.8 6-6.44a7.1 7.1 0 006.02-8.16l-.22-1.93c-.43-3.22-3-5.8-6.22-6h-1.93a6.84 6.84 0 01-7.52-4.52c-.43-1.07-.86-2.36-1.5-3.43a7.34 7.34 0 012.15-8.59c3.22-2.36 3.65-6.87 1.28-10.09l-1.07-1.5a7.37 7.37 0 00-10.09-1.29 7.4 7.4 0 01-8.8 0c-.86-.86-1.93-1.5-3-2.14a7.04 7.04 0 01-2.37-8.38 7.03 7.03 0 00-3.86-9.23l-1.93-.86a7.03 7.03 0 00-9.23 3.87c-1.3 3-4.3 4.93-7.73 4.29-.65 0-1.29-.21-1.72-.21-.64 0-1.29-.22-1.72-.22-3.22-.21-5.8-2.79-6.44-6.01a6.9 6.9 0 00-7.94-6.01l-1.93.21a6.9 6.9 0 00-6.01 7.95 6.84 6.84 0 01-4.51 7.51c-1.07.43-2.15.86-3.44 1.5-3 1.3-6.44.43-8.58-2.14a7.37 7.37 0 00-10.1-1.3l-1.7 1.3c-3.23 2.36-3.66 6.87-1.3 10.09a7.4 7.4 0 010 8.8c-.86.86-1.5 1.93-2.14 3a7.34 7.34 0 01-6.66 3c-.64 0-1.29-.2-1.72-.42a7.03 7.03 0 00-9.23 3.86l-.86 1.94a7.03 7.03 0 003.87 9.23c3 1.28 4.94 4.29 4.3 7.72 0 .65-.22 1.3-.22 1.72 0 .65-.22 1.29-.22 1.93-.21 3.22-2.79 5.8-6.22 6.44a6.9 6.9 0 00-6.01 7.95l.21 1.93c.43 3.22 3 5.8 6.23 6.22h1.93a6.84 6.84 0 017.51 4.51c.43 1.07.86 2.15 1.5 3.44 1.3 3 .43 6.44-2.14 8.58-3.22 2.37-3.65 6.87-1.29 10.1l1.29 1.71c1.29 1.5 3 2.36 4.72 2.8a7.4 7.4 0 005.37-1.51 7.4 7.4 0 018.8 0c.86.86 1.93 1.5 3 2.14a6.77 6.77 0 012.37 8.38 7.03 7.03 0 003.86 9.23l1.93.86a7.03 7.03 0 009.23-3.87c1.3-3 4.51-4.94 7.73-4.3.64 0 1.29.22 1.72.22.64 0 1.29.22 1.72.22 3.22.21 5.8 2.79 6.44 6.22a7.1 7.1 0 008.15 6.01l1.94-.21a7.1 7.1 0 006-8.16 6.84 6.84 0 014.51-7.51c1.08-.43 2.37-.86 3.44-1.5 3-1.3 6.44-.43 8.59 2.14a7.36 7.36 0 0010.08 1.3l1.72-1.3c3.22-2.36 3.65-6.87 1.3-10.09a7.4 7.4 0 010-8.8c.85-.86 1.5-1.93 2.14-3a7.33 7.33 0 016.65-3c.65 0 1.29.2 1.72.42a7.03 7.03 0 009.23-3.86l.86-1.94c1.29-4.07-.43-8.15-4.08-9.66zm-68.05 23.18a40.35 40.35 0 1110.09-80.07 40.35 40.35 0 01-10.09 80.07z" class="qwe"/></g></g>
  <path fill="#009BEC" d="M84.17 400.37a32.84 32.84 0 100-65.69 32.84 32.84 0 000 65.7z"/>
  <path fill="#5E7389" d="M598.52 363.66H112.51a1.92 1.92 0 01-1.93-1.93c0-1.07.85-1.93 1.93-1.93h486.01c1.08 0 1.94.86 1.94 1.93 0 1.07-.86 1.93-1.94 1.93z"/>
  <path fill="#53245E" d="M40.38 363.66H20.2a1.92 1.92 0 01-1.93-1.93c0-1.07.86-1.93 1.93-1.93h20.18c1.07 0 1.93.86 1.93 1.93 0 1.07-.86 1.93-1.93 1.93z"/>
  <path fill="#009BEC" d="M645.75 378.7H524.68a1.92 1.92 0 01-1.94-1.94c0-1.07.86-1.93 1.94-1.93h121.07c1.07 0 1.93.86 1.93 1.93 0 1.07-.86 1.93-1.93 1.93z"/>
  <path fill="#C9E9F4" d="M558.38 106.49c-6.87.21-13.1 1.07-17.6 2.36-9.23 2.58-17.6 9.66-18.04 18.25-.21 6.87 4.51 13.3 10.95 17.38 14.17 9.02 44.44 16.32 61.61 14.82 13.53-1.3 27.05-10.52 27.48-22.54.43-24.05-37.78-31.35-64.4-30.27z"/>
  <path fill="#5E7389" d="M393.94 89.31h-18.03c-.65 0-1.07-.43-1.07-1.07 0-.64.43-1.07 1.07-1.07h18.03c.64 0 1.07.43 1.07 1.07 0 .64-.43 1.07-1.07 1.07zM352.51 89.31h-3.86c-.65 0-1.08-.43-1.08-1.07 0-.64.43-1.07 1.08-1.07h3.86c.64 0 1.07.43 1.07 1.07 0 .64-.43 1.07-1.07 1.07zM344.14 89.31H234.87c-.64 0-1.07-.43-1.07-1.07 0-.64.43-1.07 1.07-1.07h109.27c.64 0 1.07.43 1.07 1.07 0 .64-.43 1.07-1.07 1.07zM213.4 89.31H140c-.65 0-1.08-.43-1.08-1.07 0-.64.43-1.07 1.08-1.07h73.41c.65 0 1.08.43 1.08 1.07 0 .64-.43 1.07-1.08 1.07zM121.74 163.8c-.65 0-1.07-.42-1.07-1.07V114c0-.64.42-1.07 1.07-1.07.64 0 1.07.43 1.07 1.07v48.73c0 .65-.43 1.08-1.07 1.08zM121.74 180.55c-.65 0-1.07-.43-1.07-1.07v-8.8c0-.65.42-1.08 1.07-1.08.64 0 1.07.43 1.07 1.07v8.8c0 .65-.43 1.08-1.07 1.08zM121.74 287.88c-.65 0-1.07-.42-1.07-1.07v-83.94c0-.64.42-1.07 1.07-1.07.64 0 1.07.43 1.07 1.07v83.94c0 .65-.43 1.07-1.07 1.07zM154.8 331.25h-23.4a10.63 10.63 0 01-10.73-10.74v-22.96c0-.65.42-1.08 1.07-1.08.64 0 1.07.43 1.07 1.07v22.97a8.61 8.61 0 008.59 8.6h23.4c.64 0 1.07.42 1.07 1.06 0 .65-.43 1.08-1.07 1.08zM169.61 331.25h-6.01c-.64 0-1.07-.43-1.07-1.07 0-.65.43-1.08 1.07-1.08h6.01c.64 0 1.07.43 1.07 1.07 0 .65-.43 1.08-1.07 1.08zM277.8 331.25H174.33c-.64 0-1.07-.43-1.07-1.07 0-.65.43-1.08 1.07-1.08H277.8c.65 0 1.08.43 1.08 1.07 0 .65-.43 1.08-1.08 1.08zM318.8 331.25h-15.67c-.64 0-1.07-.43-1.07-1.07 0-.65.43-1.08 1.07-1.08h15.68c.64 0 1.07.43 1.07 1.07 0 .65-.43 1.08-1.07 1.08zM434.08 331.25h-47c-.65 0-1.08-.43-1.08-1.07 0-.65.43-1.08 1.07-1.08h47.01c.65 0 1.08.43 1.08 1.07 0 .65-.43 1.08-1.08 1.08zM472.94 297.55c-.64 0-1.07-.43-1.07-1.08v-41.86c0-.64.43-1.07 1.07-1.07.64 0 1.07.43 1.07 1.07v41.86c0 .65-.43 1.07-1.07 1.07zM472.94 247.74c-.64 0-1.07-.43-1.07-1.07v-7.73c0-.64.43-1.07 1.07-1.07.64 0 1.07.43 1.07 1.07v7.73c0 .64-.43 1.07-1.07 1.07zM472.94 194.07c-.64 0-1.07-.43-1.07-1.07v-64.4c0-.64.43-1.07 1.07-1.07.64 0 1.07.42 1.07 1.07V193c0 .64-.43 1.07-1.07 1.07z"/>
  <path fill="#8C619B" d="M214.05 34.14s-51.95 1.94-51.52 38.64l2.36 26.4 113.99.65s9.23-27.26-34.56-54.95l-30.27-10.74z"/>
  <path fill="#53245E" d="M261.06 74.29c-3.65-3-8.37-5.16-12.24-8.38-2.36-1.93-5.58-5.8-5.58-9.01.22-2.8 2.15-3.22 3-5.8.65-1.07.87-2.57 1.08-3.65-1.07-.86-2.57-1.71-3.86-2.57l-29.84-10.95s-51.95 1.93-51.52 38.64l2.36 26.62 26.19.21c1.07-2.57.64-4.5 1.07-7.08.43-2.15 2.8-3.86 4.3-5.15 3.86-3 9.01-4.51 13.95-4.08 3.22.21 6.44 1.07 9.66 1.29 3.86.43 6.22-.65 9.87-1.94 1.72-.42 3.44-.42 5.37-1.07 1.72-.64 2.58-4.08 4.08-5.15 3.65-2.58 8.37-1.72 13.3-1.07 3.44.21 8.81 1.28 10.96 4.07a27.66 27.66 0 016.22 13.1c1.72-4.72-4.5-15.03-8.37-18.03z"/>
  <path fill="#D3836A" d="M252.26 99.83l-4.3-25.11s-38-5.59-42.93 2.36a641.55 641.55 0 00-13.3 21.46l60.53 1.3z"/>
  <path fill="#EC916F" d="M248.18 95.75c.43-.43.86-.85 1.07-1.28 3-4.94-.43-14.17-1.28-19.32-9.24-1.3-36.93-7.09-42.94 2.36-2.79 4.08-12.24 14.6-10.73 19.53 10.73-2.14 21.46-5.8 32.41-2.79 5.58 1.29 16.32 6.23 21.47 1.5zM213.83 33.93s-7.3 28.55 12.02 25.97c24.9-3.43-12.02-25.97-12.02-25.97z"/>
  <path fill="#FBA77A" d="M237.88 5.8c-12.67-.2-22.97 10.31-23.62 22.98-.64 12.02-2.36 22.75 12.88 27.9 20.4 6.87 28.12-30.7 28.12-30.7s.65-19.96-17.38-20.17z"/>
  <path fill="#BA8ECA" d="M257.2 58.4c-.22.43 0 1.07.21 1.5 2.36 3.87 4.94 7.73 7.51 11.38.86 1.29 1.72 2.8 3.22 3.65 1.3.65 3 1.29 3.44-.64.21-1.72-1.93-3.87-2.8-5.16a55.04 55.04 0 00-9.65-10.3c-.65-.64-1.5-1.07-1.93-.43z"/>
  <path fill="#8C619B" d="M247.97 15.47s6.65 8.15 7.08 10.3c0 0 1.72-6.65-1.29-11.8l-5.8 1.5z"/>
  <path fill="#53245E" d="M215.34 22.34s3.22.64 2.57 7.3l1.93 1.93s.43-9.88 4.3-12.45l.43-4.3s26.4 9.66 33.06-3c0 0-4.3-1.08-6.23-3l3-1.08S244.75.23 234.01 0c-21.25-.43-16.1 12.02-16.1 12.02l-4.08 13.74 1.08.22.43-3.65z"/>
  <path fill="#fff" d="M242.38 45.52l-13.52-6.22s.64 8.15 9.01 9.01c0 0 3.23 0 4.51-2.79z"/>
  <path fill="#FBA77A" d="M217.48 33.93c1.72-1.72 1.72-7.51.43-9.45-1.29-2.57-4.94-1.93-6.22 0a5.85 5.85 0 00-1.08 5.37c.22 1.93 1.08 3.65 2.15 5.37 1.5.43 3.65 0 4.72-1.3z"/>
  <path fill="#fff" d="M249.68 75.36l4.3 23.61 3.22-.21L251.19 76l-1.5-.64zM236.8 58.83s-27.9 15.89-27.48-18.68l-3.86-.43s-1.72 36.93 30.7 19.75l.64-.64z"/>
  <path fill="#384656" d="M457.48 320.51H137.41a5.77 5.77 0 01-5.8-5.8V107.79c0-3.22 2.58-5.8 5.8-5.8h320.07c3.22 0 5.8 2.58 5.8 5.8v206.94c0 3-2.58 5.8-5.8 5.8z"/>
  <path fill="#5E7389" d="M457.48 316.44H137.41a5.77 5.77 0 01-5.8-5.8V103.7c0-3.22 2.58-5.8 5.8-5.8h320.07c3.22 0 5.8 2.58 5.8 5.8v206.94c0 3.22-2.58 5.8-5.8 5.8z"/>
  <path fill="#C8E9F4" d="M451.47 308.7H143.21a3.85 3.85 0 01-3.87-3.86v-169.8h316.21v169.8c0 2.15-1.93 3.87-4.08 3.87z"/>
  <path fill="#53245E" d="M186.35 301.2h-23.4a1.92 1.92 0 01-1.93-1.94v-23.61c0-1.07.86-1.93 1.94-1.93h23.4c1.07 0 1.93.85 1.93 1.93v23.61c0 1.08-.86 1.94-1.94 1.94z"/>
  <path fill="#009BEC" d="M229.93 180.76h-15.88c-.65 0-1.3-.64-1.3-1.28v-15.89c0-.64.65-1.29 1.3-1.29h15.88c.65 0 1.3.65 1.3 1.29v15.89c.2.64-.44 1.28-1.3 1.28z"/>
  <path fill="#A0DEEF" d="M180.34 294.97H149a1.92 1.92 0 01-1.93-1.93V150.7c0-1.07.86-1.93 1.93-1.93h31.13c1.07 0 1.93.86 1.93 1.93v142.54c.22.86-.64 1.72-1.72 1.72z"/>
  <path fill="#F3FDFF" d="M396.95 127.31H141.27a1.92 1.92 0 01-1.93-1.93v-13.74c0-1.07.86-1.93 1.93-1.93h255.68c1.07 0 1.93.86 1.93 1.93v13.74c0 .86-.86 1.93-1.93 1.93z"/>
  <path fill="#BECD27" d="M453.4 111.64h-17.6a1.92 1.92 0 01-1.93-1.93V92.1c0-1.08.86-1.94 1.93-1.94h17.6c1.08 0 1.94.86 1.94 1.93v17.6c.21 1.08-.86 1.94-1.94 1.94z"/>
  <path fill="#53BCE7" d="M426.14 111.64h-17.6a1.92 1.92 0 01-1.93-1.93V92.1c0-1.08.86-1.94 1.93-1.94h17.6c1.07 0 1.93.86 1.93 1.93v17.6c0 1.08-.86 1.94-1.93 1.94z"/>
  <path fill="#fff" d="M172.4 160.8v15.67h-15.67V160.8h15.67zm.22-2.15h-16.1c-1.08 0-1.94.86-1.94 1.94v16.1c0 1.07.86 1.93 1.93 1.93h16.1c1.08 0 1.94-.86 1.94-1.94v-16.1c0-1.07-.86-1.93-1.94-1.93z"/>
  <path fill="#673B72" d="M174.33 187.42l-15.67-3a1.98 1.98 0 00-2.36 1.5l-3 15.67a1.98 1.98 0 001.5 2.36l15.67 3a1.98 1.98 0 002.36-1.5l3-15.67a1.98 1.98 0 00-1.5-2.36z"/>
  <path fill="#fff" d="M172.4 215.11v15.67h-15.67v-15.67h15.67zm.22-2.15h-16.1c-1.08 0-1.94.86-1.94 1.94V231c0 1.07.86 1.93 1.93 1.93h16.1c1.08 0 1.94-.86 1.94-1.93v-16.1c0-1.08-.86-1.94-1.94-1.94zM172.4 242.16v15.67h-15.67v-15.67h15.67zm.22-2.15h-16.1c-1.08 0-1.94.86-1.94 1.94v16.1c0 1.07.86 1.93 1.93 1.93h16.1c1.08 0 1.94-.86 1.94-1.93v-16.1c0-1.08-.86-1.94-1.94-1.94zM172.4 269.42v15.67h-15.67v-15.67h15.67zm.22-2.14h-16.1c-1.08 0-1.94.86-1.94 1.93v16.1c0 1.07.86 1.93 1.93 1.93h16.1c1.08 0 1.94-.86 1.94-1.93v-16.1c0-1.07-.86-1.93-1.94-1.93zM362.81 169.39h-140.6c-1.08 0-1.94.86-1.94 1.93v15.67c0 1.07.86 1.93 1.94 1.93h140.6c1.08 0 1.94-.86 1.94-1.93v-15.67c0-1.07-.86-1.93-1.94-1.93z"/>
  <path fill="#77CDEA" d="M240.45 141.48h-42.93c-1.08 0-1.94.86-1.94 1.93v5.8c0 1.07.86 1.93 1.94 1.93h42.93c1.08 0 1.93-.86 1.93-1.93v-5.8c0-1.07-.85-1.93-1.93-1.93z"/>
  <path fill="#fff" d="M428.72 199.87H221.77a1.92 1.92 0 01-1.93-1.93c0-1.08.86-1.93 1.94-1.93h206.94c1.07 0 1.93.85 1.93 1.93 0 1.07-.86 1.93-1.93 1.93z"/>
  <path fill="#A3AA11" d="M375.05 155.65h-33.27c-1.72 0-3 1.28-3 3s1.28 3 3 3h33.27c1.72 0 3-1.28 3-3s-1.28-3-3-3z"/>
  <path fill="#673B72" d="M417.99 155.65H384.7c-1.72 0-3 1.28-3 3s1.28 3 3 3H418c1.71 0 3-1.28 3-3s-1.29-3-3-3z"/>
  <path fill="#BECD27" d="M261.27 267.28h-59.46a3.85 3.85 0 01-3.86-3.87v-45.94a3.85 3.85 0 013.86-3.86h59.46a3.85 3.85 0 013.87 3.86v45.94a3.85 3.85 0 01-3.87 3.87z"/>
  <path stroke="#fff" stroke-miterlimit="10" d="M485.6 221.98v4.3h-4.29"/>
  <path stroke="#fff" stroke-dasharray="4.25 4.25" stroke-miterlimit="10" d="M472.3 226.27H349.07"/>
  <path stroke="#fff" stroke-miterlimit="10" d="M344.57 226.27h-4.3v-4.29M340.27 214.04v-4.3h4.3"/>
  <path stroke="#fff" stroke-dasharray="4.25 4.25" stroke-miterlimit="10" d="M353.8 209.75h123"/>
  <path stroke="#fff" stroke-miterlimit="10" d="M481.31 209.75h4.3v4.29"/>
  <path fill="#673B72" d="M407.25 260.4H294.12a3.85 3.85 0 00-3.87 3.87v29.2a3.85 3.85 0 003.87 3.86h113.13a3.85 3.85 0 003.87-3.86v-29.2a3.85 3.85 0 00-3.87-3.86z"/>
  <path fill="#009BEC" d="M403.17 256.54H290.04a3.85 3.85 0 00-3.86 3.87v29.2a3.85 3.85 0 003.86 3.86h113.13a3.85 3.85 0 003.87-3.87v-29.2c.21-2.14-1.72-3.86-3.87-3.86z"/>
  <path fill="#fff" d="M419.49 249.03v28.55H307v-28.55h112.49zm.43-4.3H306.79a3.85 3.85 0 00-3.87 3.87v29.2a3.85 3.85 0 003.87 3.86h113.13a3.85 3.85 0 003.86-3.87V248.6a3.85 3.85 0 00-3.86-3.86z"/>
  <path stroke="#009BEC" stroke-linecap="round" stroke-linejoin="round" stroke-miterlimit="10" d="M198.16 259.98l14.17-18.68 21.25 11.16 16.1-5.15 5.37 5.15 9.23-8.37"/>
  <path stroke="#fff" stroke-linecap="round" stroke-linejoin="round" stroke-miterlimit="10" stroke-width=".75" d="M198.8 252.46l4.94-11.8 8.38 19.96 10.73-31.56 3.43 10.74 19.32-16.1 7.3 7.3 10.74-13.74"/>
  <path fill="#000" d="M535.62 296.26l-132.88-24.48c-4.08-.85-7.3 3.01-6 6.87l40.35 128.6c1.5 4.5 7.51 4.93 9.66 1.06l22.54-41.43 19.32 17.18a5.39 5.39 0 007.51-.43l22.54-25.55a5.39 5.39 0 00-.42-7.51l-19.32-17.18 38.42-27.26c4.08-3 2.8-9.01-1.72-9.87z" opacity=".1"/>
  <g style="animation:2s infinite floating">
    <path fill="#8C619B" d="M437.52 403.38c-.86 0-1.72-.43-2.15-1.5l-40.36-128.6c-.43-1.07 0-1.5.43-1.92.43-.65 1.3-1.08 1.72-1.08h.43l132.67 24.47a1.9 1.9 0 011.72 1.72c0 .43.21 1.5-1.08 2.36l-41.64 29.63 22.1 19.75c.44.43.87 1.07.87 1.5 0 .64-.22 1.29-.65 1.5l-22.54 25.55c-.43.43-1.07.86-1.72.86-.64 0-1.07-.22-1.5-.65l-22.11-19.75-24.47 44.87c-.43 1.29-1.3 1.29-1.72 1.29z"/>
    <path fill="#fff" d="M398.02 273.29l129.88 24.04-37.14 26.4-6.23 4.51 5.58 4.94 18.68 16.75-21.47 24.25-18.67-16.74-5.58-4.94-3.65 6.66-21.69 40.14-39.71-126.01zm-1.07-6.23c-3.44 0-6.23 3.44-4.94 6.87l40.36 128.59c.86 2.36 3 3.86 4.94 3.86a5.4 5.4 0 004.72-2.79l22.54-41.43 19.32 17.17c1.07.86 2.15 1.5 3.65 1.5s3-.64 4.08-1.71l22.54-25.55a5.39 5.39 0 00-.43-7.5l-19.32-17.18 38.42-27.27c3.87-2.79 2.37-8.58-2.14-9.66L398.02 267.5c-.43-.43-.86-.43-1.07-.43z"/>
  </g>
  <path fill="#fff" d="M75.37 370.53v4.51l-13.52-5.37v-4.29l13.52-5.37v4.51l-9.02 3 9.02 3.01zM80.74 379.55h-4.3L87.4 355.5h4.3l-10.95 24.04zM106.28 369.46l-13.52 5.37v-4.51l9.01-3-9.01-3.01v-4.51l13.52 5.37v4.29z"/>
  <path fill="#000" d="M202.24 133.1l.43-.42c4.5 6.44 31.34 43.36 41.86 43.36 4.3 0 8.59-1.93 11.8-3.86.87-.65 1.94-1.08 2.58-1.94.43-.21.65-.64 1.08-.85a24.96 24.96 0 003.86-4.3c.22-.43.43-.64.43-.64.43.43.86 1.07 1.29 1.72 0 .21.21.21.21.43.43.43.65.85 1.08 1.28 0 .22.21.22.21.43.43.43.86 1.08 1.29 1.72v.22c.86 1.07 2.15 2.36 3 3.22l.22.21 1.29 1.29.21.21c3.65 3 7.52 4.3 11.8 1.93 8.81-5.15-25.32-37.35-25.32-37.35l-26.4-28.98 1.07-.86L223.7 97.9h-50.02c4.5 10.09 13.3 22.11 28.55 35.2z" opacity=".1"/>
  <path fill="#FBA77A" d="M205.25 121.08l27.9-19.53L260 130.53s34.13 32.2 25.33 37.35c-8.16 4.51-15.03-4.5-21.04-12.45 0 0 0-.43-.43.43-.86 1.93-9.02 10.95-19.1 10.95-12.03-.21-39.5-45.73-39.5-45.73z"/>
  <path fill="#EC916F" d="M276.73 168.1s0-.22 0 0a25.79 25.79 0 01-7.3-19.32c0-.43-5.37 6-5.8 6.44a9.22 9.22 0 01-6.65 3.86 5.45 5.45 0 01-4.94-1.93c.86 2.8-1.93 6.01-4.93 6.22-6.87.65-21.69-24.9-25.76-31.77-2.8-4.29-4.3-8.15-2.8-13.1 1.08-3.86 4.51-6.43 7.73-8.8 2.8-2.14 5.59-3.86 8.38-6l-2.15-2.37-31.13 21.04s30.91 44.22 42.5 44.22c10.1 0 18.25-9.22 19.11-10.94.43-.86.43-.43.43-.43 4.5 4.94 8.8 10.52 13.31 12.88z"/>
  <path fill="#8C619B" d="M234.44 100.9l-32.2 22.98c-41.22-36.07-35-61.4-27.26-67.2a16.88 16.88 0 0123.18 3l36.28 41.23z"/>
  <path fill="#F9BEA5" d="M246.68 162.52c-.43.21-.65 1.07-.43 1.71.21.43.64.65 1.29.65 1.07 0 2.36-.43 3-1.29.65-.64 1.07-2.15.65-2.8-.43-.42-.86-.42-1.72-.42-.65.22-1.08.43-1.93.64-.43.22-1.08.65-1.3.86a1.67 1.67 0 00-.42 1.72c.21.64 1.29.64 2.36.43"/>
  <path fill="#FFF3EE" d="M285.32 163.38a6.7 6.7 0 00-1.08-2.15 8.18 8.18 0 00-1.93-1.93 5.9 5.9 0 00-1.71-1.3c-.86-.42-2.37-.42-3.23.22-.85.65-1.28 1.94-1.71 3.22 0 .65 0 1.3.21 2.15a4.85 4.85 0 003 2.8c1.3.42 2.8.2 4.09-.44a3.34 3.34 0 001.71-1.29c.65-.21.65-.85.65-1.28z"/>
  <path fill="#F9BEA5" d="M245.6 119.15c-.43-.43-.64-.86-1.07-.86-.43 0-1.07-.21-1.29.22-.43.43 0 1.29.22 1.93 3 5.37 6.65 10.1 10.73 14.17.65.64 1.29 1.29 2.15 1.72 3.43 1.28 1.72-2.37.64-3.65a16.1 16.1 0 00-2.79-3.87c-3-3.43-5.8-6.65-8.59-9.66z"/>
  <path fill="#fff" d="M231.44 98.97s-32.42 19.97-32.2 20.61c.2.43-1.3-1.28-1.3-1.28l28.99-22.98 4.5 3.65z"/>
  <path fill="#008BE0" fill-rule="evenodd" d="M390.94 117.86a2.38 2.38 0 01-2.37 2.37 2.38 2.38 0 01-2.36-2.37 2.38 2.38 0 012.37-2.36 2.38 2.38 0 012.36 2.36zm-.43 3.87c-.65.43-1.3.64-2.15.64a4.3 4.3 0 01-4.3-4.29 4.3 4.3 0 014.3-4.3 4.3 4.3 0 014.3 4.3c0 .86-.22 1.5-.65 2.15l2.15 2.14c.43.43.43 1.08 0 1.72-.43.64-1.08.43-1.72 0l-1.93-2.36z" clip-rule="evenodd"/>
</svg>
