<svg xmlns="http://www.w3.org/2000/svg" fill="none" viewBox="0 0 96 96">
  <circle cx="48" cy="48" r="48" fill="#53BCE7"/>
  <path fill="#fff" fill-rule="evenodd" d="M54 42.7a6 6 0 11-12 0 6 6 0 0112 0zm3 0a9 9 0 11-18 0 9 9 0 0118 0z" clip-rule="evenodd"/>
  <path fill="#fff" fill-rule="evenodd" d="M50.1 60.9l3-3 3.6.6h.6l4.5 4.5-3.5 1.3-1.3 3.5-6.9-6.9zM34.2 63l4.5-4.5h.6L43 58l2.9 2.9-6.9 6.9-1.3-3.5-3.5-1.3zm19.2-32.5a3 3 0 01-2.5-.8L48 27H48L45 29.7a3 3 0 01-2.5.8L39 30l-.2.1L38 34a3 3 0 01-1.5 2.1L33 37.8s-.1.1 0 .2l1.6 3.4a3 3 0 010 2.7L33 47.5v.2l3.5 1.8a3 3 0 011.5 2.1l.7 3.8.2.1 3.7-.5a3 3 0 012.5.8l2.8 2.7h.2l2.8-2.7a3 3 0 012.5-.8l3.7.5.2-.1.7-3.8a3 3 0 011.5-2.1l3.4-1.8s.1-.1 0-.2L61.4 44a3 3 0 010-2.7L63 38v-.2L59.4 36a3 3 0 01-1.5-2.1l-.7-3.8-.2-.1-3.7.5zM50.2 25a3.2 3.2 0 00-4.4 0L43 27.5l-3.8-.5c-1.7-.2-3.3 1-3.6 2.6l-.6 3.7-3.4 1.8a3.2 3.2 0 00-1.4 4.2l1.7 3.4-1.7 3.5a3.2 3.2 0 001.4 4.2L35 52l.6 3.8c0 .4.2.7.4 1l-5.7 5.6c-.7.8-.4 2.1.6 2.5l4.4 1.6L37 71c.4 1 1.7 1.3 2.5.6L48 63l8.5 8.6c.8.7 2.1.4 2.5-.6l1.6-4.4L65 65c1-.4 1.3-1.7.6-2.5L59.9 57l.4-1 .6-3.8 3.4-1.7a3.2 3.2 0 001.4-4.2L64 42.7l1.7-3.4c.7-1.5.1-3.4-1.4-4.2L61 33.3l-.6-3.7a3.2 3.2 0 00-3.6-2.6l-3.8.5-2.7-2.6z" clip-rule="evenodd"/>
</svg>
