<svg xmlns="http://www.w3.org/2000/svg" fill="none" viewBox="0 0 96 96">
  <circle cx="48" cy="48" r="48" fill="#53BCE7"/>
  <path fill="#fff" fill-rule="evenodd" d="M37.1 39.4a33.6 33.6 0 000 17.2 24 24 0 00-5.8 4.2 21 21 0 010-25.6 24 24 0 005.8 4.2zm1-3c1.2-3.3 3-6.3 5.1-8.9a21 21 0 00-9.9 5.5 21 21 0 004.7 3.5zm17.1 1.3c-1.5-4.3-4-8-7.2-10.7a25.4 25.4 0 00-7.2 10.7 21 21 0 0014.4 0zm3.7 1.7a33.7 33.7 0 010 17.2c2.1 1.1 4 2.5 5.8 4.2a21 21 0 000-25.6 24 24 0 01-5.8 4.2zm-6.1-11.9c2.2 2.6 4 5.6 5.2 9a21 21 0 004.7-3.5 21 21 0 00-10-5.5zm5.2 32c-1.3 3.4-3 6.4-5.2 9a21 21 0 009.9-5.5 21 21 0 00-4.7-3.5zm-17.2-1.2a21 21 0 0114.4 0c-1.5 4.3-4 8-7.2 10.7a25.4 25.4 0 01-7.2-10.7zm-1-2.9a24 24 0 0116.3 0 30.7 30.7 0 000-14.8 24 24 0 01-16.2 0 30.7 30.7 0 000 14.8zm3.4 13C41 66 39.2 63 38 59.6a21 21 0 00-4.7 3.5 21 21 0 0010 5.5zM49 72a24 24 0 0015.9-41.2A24 24 0 0047 24a24 24 0 001.7 48z" clip-rule="evenodd"/>
</svg>
