<svg xmlns="http://www.w3.org/2000/svg" fill="none" viewBox="0 0 96 96">
  <circle cx="48" cy="48" r="48" fill="#53BCE7"/>
  <path fill="#fff" d="M37.3 59.8a1.5 1.5 0 00-2.1-2.1l-8.8 8.7a1.5 1.5 0 102.2 2.2l8.7-8.8zM33.6 56a1.5 1.5 0 10-2.2-2l-5 5a1.5 1.5 0 102.2 2l5-5zM41 63.6a1.5 1.5 0 00-2-2.2l-5 5a1.5 1.5 0 102 2.2l5-5z"/>
  <path fill="#fff" fill-rule="evenodd" d="M46 67.1a8 8 0 001-5.9c2.6-1.4 5.8-3.5 8.5-5.5A18.6 18.6 0 0146 67zM37.2 48c2-3.4 4.8-7.4 7.1-9.6a35.6 35.6 0 0123.5-11.2c-.2 3-.8 6-1.7 8.8H50.9c-3.3 0-5 4-2.6 6.4l4.3 4.3c.5.5.1 1.3-.5 1.3H37.2zm9 10.2c3.6-2 8-5 10.4-7.5 3.8-3.8 6.5-7.6 8.3-11.7H51c-.6 0-1 .8-.5 1.3l4.3 4.3c2.4 2.4.7 6.4-2.6 6.4H39l7.2 7.2zm-13.2-9a71.5 71.5 0 016.4-9.7A18.6 18.6 0 0027.9 49a8 8 0 015.9-1l-.8 1.2zM71 25a38.9 38.9 0 01-12 27.6 21.5 21.5 0 01-17.4 19.3l-1.1.2c-1.3.2-2-1.4-1-2.3l3.3-3.3c2-2 2-5.1 0-7l-7.1-7.2a5 5 0 00-7.1 0l-3.3 3.3c-1 1-2.5.3-2.3-1l.2-1v-.1a21.5 21.5 0 0119.3-17.5l-.3.3a39 39 0 0128-12.2c.4 0 .8.4.8.9z" clip-rule="evenodd"/>
</svg>
