<svg width="32" height="384" xmlns="http://www.w3.org/2000/svg" xmlns:xlink="http://www.w3.org/1999/xlink">
    <symbol id="mail" viewBox="0 0 32 32"><path d="M16 0a16 16 0 100 32 16 16 0 000-32zm8.31 9.66L16 16.4 7.69 9.66H24.3zm1.19 7.56v4.12c0 .66-.53 1.2-1.19 1.2H7.7c-.66 0-1.19-.54-1.19-1.2V10.66c0-.19.05-.36.13-.51.09.17.22.33.4.43l8.38 6.86a1.19 1.19 0 001.18 0l8.29-6.71c.23-.13.4-.34.5-.57.07.15.12.32.12.5v6.56z"/></symbol>
    <symbol id="telegram" fill-rule="evenodd" stroke-linejoin="round" stroke-miterlimit="1.41" clip-rule="evenodd" viewBox="0 0 24 24"><path d="M12 0a12 12 0 100 24 12 12 0 000-24zm3.22 17.87a.7.7 0 00.65.09.68.68 0 00.42-.5L18.5 6.9a.46.46 0 00-.15-.45.47.47 0 00-.47-.08L4.82 11.23a.48.48 0 00-.32.47c0 .2.15.39.35.45 1.38.4 3.19.98 3.19.98L9.33 17c.05.17.18.3.35.34a.5.5 0 00.47-.12l1.8-1.7 3.27 2.36zM8.8 12.81l.98 3.23.22-2.05 5.94-5.35a.16.16 0 00.02-.22.16.16 0 00-.22-.04L8.8 12.8z"/></symbol>
    <symbol id="facebook" viewBox="0 0 24 24"><path d="M12 0c-6.627 0-12 5.373-12 12s5.373 12 12 12 12-5.373 12-12-5.373-12-12-12zm3 8h-1.35c-.538 0-.65.221-.65.778v1.222h2l-.209 2h-1.791v7h-3v-7h-2v-2h2v-2.308c0-1.769.931-2.692 3.029-2.692h1.971v3z"/></symbol>
    <symbol id="pen" viewBox="0 0 24 24"><path d="M12 0c-6.627 0-12 5.373-12 12s5.373 12 12 12 12-5.373 12-12-5.373-12-12-12zm-.994 9.095l2.974-2.884c.144-.14.331-.211.516-.211.188 0 .375.073.518.22l-4.032 3.911c-.283-.294-.268-.752.024-1.036zm-4.49 8.819c-.06.057-.136.086-.212.086-.168 0-.304-.137-.304-.304 0-.079.031-.159.093-.218l.5-.485.422.436-.499.485zm4.034-2.386c-.919.891-1.796 1.333-3.013 1.728l-.754-.779c.433-1.205.901-2.067 1.819-2.958l1.71-1.657 1.946 2.009-1.708 1.657zm6.965-6.483l-4.402 4.269-2.218-2.29 4.402-4.27c1.016-.984 2.703-.246 2.703 1.146 0 .416-.162.832-.485 1.145z"/></symbol>
    <symbol id="habr" viewBox="0 0 32 32"><path fill-rule="evenodd" d="M16 0a16 16 0 100 32 16 16 0 000-32zm6.78 23.92h-4.24v-6.29h-5.08v6.29H9.22V8.08h4.24v5.8h5.08v-5.8h4.24v15.84z" clip-rule="evenodd"/></symbol>
    <symbol id="youtube" viewBox="0 0 32 32"><path d="M14.01 19l5.2-3-5.2-3z"/><path d="M16 0a16 16 0 100 32 16 16 0 000-32zm10 16.02s0 3.24-.41 4.8a2.5 2.5 0 01-1.76 1.77C22.26 23 16 23 16 23s-6.24 0-7.83-.43a2.5 2.5 0 01-1.76-1.76C6 19.26 6 16 6 16s0-3.25.41-4.81c.23-.86.92-1.55 1.76-1.78C9.74 9 16 9 16 9s6.26 0 7.83.43c.85.23 1.53.9 1.76 1.76.43 1.56.41 4.83.41 4.83z"/></symbol>
    <symbol id="instagram" viewBox="0 0 24 24"><path d="M14.83 6.3c-.74-.03-.96-.04-2.83-.04s-2.09 0-2.83.04c-1.9.09-2.78.99-2.87 2.87-.03.74-.04.96-.04 2.83s0 2.09.04 2.83c.09 1.88.97 2.78 2.87 2.87.74.03.96.04 2.83.04s2.1 0 2.83-.04c1.9-.09 2.78-.99 2.87-2.87.03-.74.04-.96.04-2.83s0-2.09-.04-2.83c-.09-1.88-.97-2.78-2.87-2.87zM12 15.6a3.6 3.6 0 110-7.2 3.6 3.6 0 010 7.2zm3.74-6.5a.84.84 0 110-1.68.84.84 0 010 1.68zm-1.4 2.9a2.33 2.33 0 11-4.67 0 2.33 2.33 0 014.66 0zM12 0a12 12 0 100 24 12 12 0 000-24zm6.96 14.89c-.12 2.54-1.53 3.95-4.07 4.07-.75.03-.99.04-2.89.04s-2.14 0-2.89-.04c-2.54-.12-3.95-1.53-4.07-4.07C5.01 14.14 5 13.9 5 12c0-1.9 0-2.14.04-2.89.12-2.54 1.53-3.95 4.07-4.07C9.86 5.01 10.1 5 12 5s2.14 0 2.89.04c2.54.12 3.95 1.54 4.07 4.07.03.75.04.99.04 2.89 0 1.9 0 2.14-.04 2.89z"/></symbol>
    <symbol id="twitter" viewBox="0 0 24 24"><path d="M12 0c-6.627 0-12 5.373-12 12s5.373 12 12 12 12-5.373 12-12-5.373-12-12-12zm6.066 9.645c.183 4.04-2.83 8.544-8.164 8.544-1.622 0-3.131-.476-4.402-1.291 1.524.18 3.045-.244 4.252-1.189-1.256-.023-2.317-.854-2.684-1.995.451.086.895.061 1.298-.049-1.381-.278-2.335-1.522-2.304-2.853.388.215.83.344 1.301.359-1.279-.855-1.641-2.544-.889-3.835 1.416 1.738 3.533 2.881 5.92 3.001-.419-1.796.944-3.527 2.799-3.527.825 0 1.572.349 2.096.907.654-.128 1.27-.368 1.824-.697-.215.671-.67 1.233-1.263 1.589.581-.07 1.135-.224 1.649-.453-.384.578-.87 1.084-1.433 1.489z"/></symbol>
</svg>
