<svg xmlns="http://www.w3.org/2000/svg" fill="none" viewBox="0 0 512 512"><path fill="#fff" d="M0 0h512v512H0z"/><path fill="#000" d="M105.8 251.4c0-11.2-3.1-20-9.5-27-6.3-7-15.1-10-26.3-10-3.5 0-7 .4-10.5.6-3.5.4-7 1.3-10.1 2.4v68c3 1.1 6.3 1.8 9.4 2.4 3 .7 6.4 1.1 9.4 1.1a37 37 0 0027.5-9.8c6.5-6.4 10-15.4 10-27.7zm-56.4 96H36V207.9c11.2-3.5 22.2-5.3 32.9-5.3a51.9 51.9 0 0138 13.6c4.6 4.2 8 9.4 10.5 15.4 2.4 5.9 3.5 12.7 3.5 19.7 0 8.8-1.3 16.2-4.6 22.2a44 44 0 01-28 24 69 69 0 01-19 2.7c-3.5 0-7-.4-10-.6-3.6-.5-6.6-1.1-10.1-2.2v50.2h.2zM161.5 165H148v134.9h13.4V165zM260.6 241.8c0-4-.7-7.7-1.7-11.2a21 21 0 00-5.3-8.8 23 23 0 00-8.8-6 35.8 35.8 0 00-12.7-2.1c-4.8 0-9.2.7-12.7 2.2a21.6 21.6 0 00-8.4 5.7 39.9 39.9 0 00-9.2 20.4h58.8v-.2zm11 44a57.4 57.4 0 01-15.4 11.2c-5.9 2.5-13 4-21.5 4a44 44 0 01-34.9-14.5 48.3 48.3 0 01-11.6-33.5c0-8.4 1.1-15.8 3.5-22.2a48 48 0 019.5-15.4c4-4.1 8.3-7 13.6-9.2 5.2-2.2 11-3 16.9-3 14 0 25 4.1 32 13 7 8.7 10.5 21.4 10.5 37.9h-72.4c.5 11 3.5 19.7 9.5 25.8 5.9 6.4 14 9.5 24 9.5 5.8 0 11-1.1 15.4-2.9a33 33 0 0012.8-9.2l8 8.6zM362.4 226a36 36 0 00-11-9.5c-4-2.1-8.3-2.8-14-2.8-7 0-11.6 1-14.5 3.5a11.7 11.7 0 00-4.2 9.2c0 2.4.7 4.8 1.8 6.6 1.3 1.8 2.8 3.5 4.8 4.6 2.2 1.3 4.6 2.4 7.5 3.5 2.8 1.1 5.7 1.8 8.3 2.9 3.5 1 7.5 2.4 11 4 3.5 1.2 7 3 9.8 5.2a24 24 0 017.5 8 25.3 25.3 0 010 23.5 26.8 26.8 0 01-7.7 8.8 31 31 0 01-11.2 5.3 57.2 57.2 0 01-34.4-2.2c-6-2.4-11.6-6.6-16.9-12.3l10.5-9.2c7 9.2 16.3 13.4 27.5 13.4 7.4 0 12.7-1.3 16.2-4.2 3.5-2.8 5.3-5.9 5.3-9.8 0-2.9-.7-5.3-1.8-7.5-1.3-2.2-3-4-5.3-5.3a50.3 50.3 0 00-7.6-3.5c-2.9-1-6-1.7-9.3-2.8-3.5-1.1-7.4-2.2-11-3.5a42.4 42.4 0 01-9.4-4.9c-2.8-2-5.2-4.6-7-7.6-1.7-3.1-2.8-7-2.8-11.7 0-8.3 3-15.1 9.2-19.7 6.3-4.6 14-7 23.9-7 7 0 13.4 1 18.6 3.5a44.3 44.3 0 0115.8 12.3l-9.6 9.2zM411.5 249.9l46.3-46.3H476l-47.4 46.3 47 50.2H457L411.5 250zm-13.1 50V165.4h13.3V300h-13.3z"/><path fill="#53BCE7" d="M194.8 335h-81.2v12.7h81.2V335z"/></svg>
